<svg id="skull" xmlns="http://www.w3.org/2000/svg" width="24" height="24" viewBox="0 0 24 24">
  <path id="Icon_color" data-name="Icon color" d="M12.3,20H11.7a.489.489,0,0,1-.353-.149l-1-1a.5.5,0,0,0-.7,0l-1,1A.493.493,0,0,1,8.3,20H7.7a.493.493,0,0,1-.353-.149l-1-1a.5.5,0,0,0-.7,0l-1,1A.5.5,0,0,1,4.3,20H3.7a.5.5,0,0,1-.353-.149L2.29,18.79a1.008,1.008,0,0,1-.29-.7V16.41a.993.993,0,0,0-.29-.7L.59,14.59A2.014,2.014,0,0,1,0,13.17V8A8,8,0,1,1,16,8v5.17a2.014,2.014,0,0,1-.59,1.42l-1.12,1.12a.993.993,0,0,0-.29.7v1.68a1,1,0,0,1-.291.7L12.65,19.85A.5.5,0,0,1,12.3,20Zm-4.45-6a.487.487,0,0,0-.387.19l-1,1.239A.351.351,0,0,0,6.73,16H9.27a.34.34,0,0,0,.25-.571l-1-1.239A.488.488,0,0,0,8.133,14H7.847ZM10,10a1,1,0,0,0-1,1v.24a1.006,1.006,0,0,0,.22.63l1.43,1.759a1,1,0,0,0,.777.371H13a1,1,0,0,0,1-1V11a1,1,0,0,0-1-1ZM3,10a1,1,0,0,0-1,1v2a1,1,0,0,0,1,1H4.57a1,1,0,0,0,.779-.371L6.78,11.87A1,1,0,0,0,7,11.24V11a1,1,0,0,0-1-1Z" transform="translate(4 2)" fill="#fff"/>
</svg>
