<svg xmlns="http://www.w3.org/2000/svg" xmlns:xlink="http://www.w3.org/1999/xlink" width="30" height="30" viewBox="0 0 30 30">
  <defs>
    <clipPath id="clip-path">
      <rect id="SVGID" width="30" height="30" transform="translate(0.001 0.001)" fill="none"/>
    </clipPath>
  </defs>
  <g id="Сгруппировать_714" data-name="Сгруппировать 714" transform="translate(-0.411 -0.163)">
    <g id="Сгруппировать_590" data-name="Сгруппировать 590" transform="translate(0.41 0.162)" clip-path="url(#clip-path)">
      <g id="Enmascarar_grupo_44" data-name="Enmascarar grupo 44" transform="translate(0.225 -0.026)">
        <g id="Grupo_560" data-name="Grupo 560">
          <path id="Trazado_841" data-name="Trazado 841" d="M3904.656,2163.674h0l-2.13-1.9h0c-2.289-2.014-6.587-.905-9.614,2.491s-3.646,7.815-1.363,9.852l2.1,1.87h0c2.283,2.038,6.6.935,9.633-2.474S3906.93,2165.716,3904.656,2163.674Z" transform="translate(-3889.043 -2160.767)" fill="#3973f4"/>
          <path id="Trazado_879" data-name="Trazado 879" d="M3892.914,2164.263c3.039-3.4,7.352-4.509,9.635-2.47s1.676,6.452-1.363,9.854-7.354,4.505-9.637,2.468S3889.877,2167.665,3892.914,2164.263Z" transform="translate(-3889.044 -2160.764)" fill="#6097fd"/>
          <g id="Grupo_543" data-name="Grupo 543" transform="translate(4.48 3.233)">
            <path id="Trazado_842" data-name="Trazado 842" d="M3892.629,2170.051a.646.646,0,0,1-.435-.161.67.67,0,0,1-.214-.517.782.782,0,0,1,.206-.5l.188-.215a2.581,2.581,0,0,1-.409-1.5.808.808,0,0,1,.622-.748.716.716,0,0,1,.155-.017.648.648,0,0,1,.431.161.636.636,0,0,1,.213.49,1.252,1.252,0,0,0,.416.967.842.842,0,0,0,.545.243.864.864,0,0,0,.61-.328c.3-.344.2-.633-.165-1.32a2.35,2.35,0,0,1,1.8-3.775,2.042,2.042,0,0,1,.812.169l.21-.236a.776.776,0,0,1,.58-.269.637.637,0,0,1,.433.163.722.722,0,0,1,.009,1.017l-.211.235a2.49,2.49,0,0,1,.31,1.122.811.811,0,0,1-.657.8.981.981,0,0,1-.132.013.639.639,0,0,1-.649-.623v-.013a.951.951,0,0,0-.314-.717.726.726,0,0,0-.482-.205.768.768,0,0,0-.561.267c-.306.342-.2.636.168,1.32a2.3,2.3,0,0,1-.11,2.981,2.372,2.372,0,0,1-1.752.866,2.025,2.025,0,0,1-.849-.187l-.206.229A.782.782,0,0,1,3892.629,2170.051Z" transform="translate(-3891.963 -2162.496)" fill="#fff"/>
          </g>
          <path id="Trazado_843" data-name="Trazado 843" d="M3901.442,2173.934h0l-1.132-1.782h0c-1.223-1.895-4.5-1.971-7.339-.169s-4.169,4.824-2.952,6.733l1.112,1.75h0c1.214,1.91,4.506,1.994,7.35.187S3902.646,2175.845,3901.442,2173.934Z" transform="translate(-3889.566 -2152.142)" fill="#3973f4"/>
          <path id="Trazado_881" data-name="Trazado 881" d="M3892.971,2171.982c2.841-1.8,6.136-1.727,7.35.184s-.108,4.924-2.955,6.733-6.136,1.724-7.349-.184S3890.125,2173.791,3892.971,2171.982Z" transform="translate(-3889.567 -2152.142)" fill="#6097fd"/>
          <g id="Grupo_544" data-name="Grupo 544" transform="translate(2.356 20.783)">
            <path id="Trazado_844" data-name="Trazado 844" d="M3892.93,2176.677a1.6,1.6,0,0,1-.995-.346l-.142.09a.7.7,0,0,1-.374.11.573.573,0,0,1-.578-.7.693.693,0,0,1,.3-.423l.129-.08a2.057,2.057,0,0,1,.027-1.149.7.7,0,0,1,.658-.474h.035a.57.57,0,0,1,.529.738.837.837,0,0,0,.094.713.474.474,0,0,0,.392.262.624.624,0,0,0,.334-.116c.238-.15.238-.316.115-.894a1.822,1.822,0,0,1,.725-2.224,1.875,1.875,0,0,1,1-.3,1.63,1.63,0,0,1,.992.327l.146-.094a.72.72,0,0,1,.374-.11.591.591,0,0,1,.5.269.571.571,0,0,1,.059.49.692.692,0,0,1-.288.374l-.148.094a1.977,1.977,0,0,1-.021.856.7.7,0,0,1-.665.513h-.07a.593.593,0,0,1-.439-.264.574.574,0,0,1-.069-.455.632.632,0,0,0-.069-.51.421.421,0,0,0-.361-.223.52.52,0,0,0-.277.084c-.236.15-.236.316-.112.9a1.821,1.821,0,0,1-.727,2.223A2.04,2.04,0,0,1,3892.93,2176.677Z" transform="translate(-3890.827 -2171.88)" fill="#fff"/>
          </g>
          <path id="Trazado_845" data-name="Trazado 845" d="M3906.885,2181.527h0l2.22-1.231h0c2.36-1.33,2.689-5.26.728-8.79s-5.486-5.346-7.866-4.028l-2.181,1.208h0c-2.379,1.318-2.715,5.26-.748,8.8S3904.505,2182.838,3906.885,2181.527Z" transform="translate(-3882.44 -2155.302)" fill="#3973f4"/>
          <path id="Trazado_880" data-name="Trazado 880" d="M3900.954,2167.476c2.377-1.318,5.9.486,7.864,4.029s1.631,7.488-.749,8.807-5.9-.485-7.865-4.029S3898.574,2168.8,3900.954,2167.476Z" transform="translate(-3881.425 -2155.305)" fill="#6097fd"/>
          <g id="Grupo_545" data-name="Grupo 545" transform="translate(20.394 14.492)">
            <path id="Trazado_846" data-name="Trazado 846" d="M3905.227,2176.659a.752.752,0,0,1-.647-.4l-.131-.236a2.282,2.282,0,0,1-.374.03,2.4,2.4,0,0,1-.714-.11.8.8,0,0,1-.53-.872.655.655,0,0,1,.325-.479.625.625,0,0,1,.309-.079.693.693,0,0,1,.208.032,1.05,1.05,0,0,0,.3.049.82.82,0,0,0,.4-.1.6.6,0,0,0,.331-.407.686.686,0,0,0-.083-.469.544.544,0,0,0-.561-.307,4.193,4.193,0,0,0-.607.066,5.673,5.673,0,0,1-.819.082,1.953,1.953,0,0,1-1.816-1.124,2.076,2.076,0,0,1,.187-2.528l-.124-.229a.713.713,0,0,1,.234-.979.65.65,0,0,1,.309-.079.748.748,0,0,1,.647.4l.116.209a2.121,2.121,0,0,1,.533-.061,2.532,2.532,0,0,1,.9.168.792.792,0,0,1,.491.821.637.637,0,0,1-.634.583.673.673,0,0,1-.227-.039,1.2,1.2,0,0,0-.413-.074,1.082,1.082,0,0,0-.535.142.644.644,0,0,0-.353.838.691.691,0,0,0,.088.154.551.551,0,0,0,.561.307,4.423,4.423,0,0,0,.608-.065,5.292,5.292,0,0,1,.819-.081,1.953,1.953,0,0,1,1.818,1.123,2.087,2.087,0,0,1-.206,2.431l.13.234a.718.718,0,0,1-.234.98A.659.659,0,0,1,3905.227,2176.659Z" transform="translate(-3900.473 -2168.516)" fill="#fff"/>
          </g>
        </g>
      </g>
    </g>
  </g>
</svg>
