<svg id="savings" xmlns="http://www.w3.org/2000/svg" width="24" height="24" viewBox="0 0 24 24">
  <path id="Icon_color" data-name="Icon color" d="M3.475,20a.992.992,0,0,1-.7-.291L.291,17.23a1,1,0,0,1,0-1.409L3.119,12.91a3.3,3.3,0,0,1,2.3-.923c.1,0,.2,0,.293.013h4.733A1.577,1.577,0,0,1,12,13.35,1.481,1.481,0,0,1,10.727,15H6.5a.5.5,0,0,0,0,1h4A2.492,2.492,0,0,0,13,13.59l3.329-3.3a1,1,0,0,1,1.419,0H17.7a1,1,0,0,1,0,1.42l-5.557,5.56a2.5,2.5,0,0,1-1.769.73H6.3a.993.993,0,0,0-.7.29L4.18,19.71A.994.994,0,0,1,3.475,20Zm9.271-7.581h0A2.484,2.484,0,0,0,12,11.5V8a1,1,0,1,1,2,0v3.17l-1.249,1.249ZM6,8a4,4,0,1,1,4-4A4,4,0,0,1,6,8ZM6,2A2,2,0,1,0,8,4,2,2,0,0,0,6,2Z" transform="translate(2.999 2)" fill="#fff"/>
</svg>
