<svg xmlns="http://www.w3.org/2000/svg" xmlns:xlink="http://www.w3.org/1999/xlink" width="22" height="22" viewBox="0 0 22 22"><defs><style>.a{fill:none;}.b{clip-path:url(#a);}.c{fill:#3973f4;}.d{fill:#6097fd;}.e{fill:#fff;}.f{fill:#707070;}.g{fill:#929292;}</style><clipPath id="a"><rect class="a" width="22" height="22" transform="translate(0 -0.248)"/></clipPath></defs><g transform="translate(0 0.248)"><g transform="translate(0 0)"><g class="b"><g transform="translate(0.461 0.028)"><path class="c" d="M3900.821,2162.9h0l-1.566-1.4h0c-1.683-1.481-4.843-.665-7.069,1.832s-2.68,5.746-1,7.243l1.541,1.375h0c1.679,1.5,4.851.688,7.082-1.819S3902.493,2164.405,3900.821,2162.9Z" transform="translate(-3889.342 -2160.767)"/><path class="d" d="M3892.187,2163.338c2.234-2.5,5.405-3.315,7.084-1.816s1.232,4.744-1,7.245-5.407,3.313-7.085,1.815S3889.954,2165.84,3892.187,2163.338Z" transform="translate(-3889.342 -2160.766)"/><g transform="translate(3.294 2.377)"><path class="e" d="M3892.453,2168.051a.474.474,0,0,1-.319-.118.493.493,0,0,1-.158-.38.577.577,0,0,1,.151-.369l.139-.158a1.9,1.9,0,0,1-.3-1.1.6.6,0,0,1,.458-.55.524.524,0,0,1,.114-.013.476.476,0,0,1,.317.118.468.468,0,0,1,.157.36.92.92,0,0,0,.306.711.617.617,0,0,0,.4.179.635.635,0,0,0,.448-.241c.224-.253.146-.466-.121-.971a1.728,1.728,0,0,1,1.327-2.776,1.5,1.5,0,0,1,.6.124l.154-.174a.572.572,0,0,1,.426-.2.47.47,0,0,1,.319.12.531.531,0,0,1,.007.748l-.155.173a1.829,1.829,0,0,1,.228.825.6.6,0,0,1-.483.588.7.7,0,0,1-.1.01.47.47,0,0,1-.477-.458v-.01a.7.7,0,0,0-.231-.527.533.533,0,0,0-.354-.151.563.563,0,0,0-.413.2c-.225.251-.145.468.124.971a1.694,1.694,0,0,1-.081,2.192,1.744,1.744,0,0,1-1.289.637,1.489,1.489,0,0,1-.624-.138l-.151.169A.574.574,0,0,1,3892.453,2168.051Z" transform="translate(-3891.963 -2162.496)"/></g><path class="c" d="M3898.3,2173.073h0l-.832-1.31h0c-.9-1.393-3.31-1.449-5.4-.124s-3.065,3.546-2.171,4.95l.818,1.287h0c.893,1.4,3.313,1.466,5.4.137S3899.183,2174.478,3898.3,2173.073Z" transform="translate(-3889.567 -2157.05)"/><path class="d" d="M3892.071,2171.637c2.089-1.327,4.511-1.269,5.4.135s-.08,3.62-2.172,4.95-4.511,1.268-5.4-.135S3889.978,2172.967,3892.071,2171.637Z" transform="translate(-3889.567 -2157.051)"/><g transform="translate(1.732 15.28)"><path class="e" d="M3892.374,2175.407a1.17,1.17,0,0,1-.731-.255l-.1.066a.512.512,0,0,1-.275.081.422.422,0,0,1-.425-.518.509.509,0,0,1,.223-.311l.095-.059a1.509,1.509,0,0,1,.02-.844.518.518,0,0,1,.484-.349h.026a.42.42,0,0,1,.389.543.614.614,0,0,0,.069.524.347.347,0,0,0,.289.193.459.459,0,0,0,.245-.085c.175-.11.175-.232.085-.657a1.339,1.339,0,0,1,.533-1.635,1.381,1.381,0,0,1,.734-.22,1.2,1.2,0,0,1,.729.241l.107-.069a.53.53,0,0,1,.275-.081.433.433,0,0,1,.371.2.42.42,0,0,1,.043.36.509.509,0,0,1-.211.275l-.109.069a1.457,1.457,0,0,1-.015.63.513.513,0,0,1-.489.377h-.051a.434.434,0,0,1-.323-.194.421.421,0,0,1-.051-.334.463.463,0,0,0-.051-.375.309.309,0,0,0-.265-.164.381.381,0,0,0-.2.062c-.173.11-.173.232-.083.659a1.339,1.339,0,0,1-.535,1.635A1.5,1.5,0,0,1,3892.374,2175.407Z" transform="translate(-3890.827 -2171.88)"/></g><path class="c" d="M3904.469,2177.693h0l1.632-.9h0c1.735-.978,1.977-3.868.535-6.463s-4.033-3.931-5.783-2.961l-1.6.888h0c-1.749.969-2,3.868-.55,6.473S3902.719,2178.657,3904.469,2177.693Z" transform="translate(-3886.496 -2158.412)"/><path class="d" d="M3900.417,2167.362c1.748-.969,4.337.357,5.782,2.962s1.2,5.506-.55,6.475-4.338-.356-5.783-2.962S3898.667,2168.332,3900.417,2167.362Z" transform="translate(-3886.059 -2158.414)"/><g transform="translate(14.995 10.655)"><path class="e" d="M3903.968,2174.5a.553.553,0,0,1-.476-.294l-.1-.173a1.67,1.67,0,0,1-.275.022,1.761,1.761,0,0,1-.525-.081.588.588,0,0,1-.389-.641.482.482,0,0,1,.239-.352.459.459,0,0,1,.227-.058.515.515,0,0,1,.153.023.758.758,0,0,0,.22.036.6.6,0,0,0,.292-.076.445.445,0,0,0,.244-.3.5.5,0,0,0-.061-.345.4.4,0,0,0-.413-.226,3.078,3.078,0,0,0-.447.048,4.206,4.206,0,0,1-.6.06,1.436,1.436,0,0,1-1.335-.826,1.527,1.527,0,0,1,.137-1.859l-.091-.168a.525.525,0,0,1,.172-.72.478.478,0,0,1,.227-.058.55.55,0,0,1,.476.3l.085.154a1.568,1.568,0,0,1,.392-.045,1.867,1.867,0,0,1,.661.124.583.583,0,0,1,.361.6.477.477,0,0,1-.242.371.469.469,0,0,1-.224.058.488.488,0,0,1-.167-.029.881.881,0,0,0-.3-.055.8.8,0,0,0-.394.1.473.473,0,0,0-.26.616.5.5,0,0,0,.065.113.406.406,0,0,0,.412.226,3.233,3.233,0,0,0,.447-.048,3.892,3.892,0,0,1,.6-.059,1.435,1.435,0,0,1,1.336.825,1.534,1.534,0,0,1-.151,1.787l.1.172a.528.528,0,0,1-.172.721A.485.485,0,0,1,3903.968,2174.5Z" transform="translate(-3900.473 -2168.516)"/></g></g></g></g><g transform="translate(0 0)"><g class="b"><g transform="translate(0.461 0.028)"><path class="f" d="M3900.821,2162.9h0l-1.566-1.4h0c-1.683-1.481-4.843-.665-7.069,1.832s-2.68,5.746-1,7.243l1.541,1.375h0c1.679,1.5,4.851.688,7.082-1.819S3902.493,2164.405,3900.821,2162.9Z" transform="translate(-3889.342 -2160.767)"/><path class="g" d="M3892.187,2163.338c2.234-2.5,5.405-3.315,7.084-1.816s1.232,4.744-1,7.245-5.407,3.313-7.085,1.815S3889.954,2165.84,3892.187,2163.338Z" transform="translate(-3889.342 -2160.766)"/><g transform="translate(3.294 2.377)"><path class="e" d="M3892.453,2168.051a.474.474,0,0,1-.319-.118.493.493,0,0,1-.158-.38.577.577,0,0,1,.151-.369l.139-.158a1.9,1.9,0,0,1-.3-1.1.6.6,0,0,1,.458-.55.524.524,0,0,1,.114-.013.476.476,0,0,1,.317.118.468.468,0,0,1,.157.36.92.92,0,0,0,.306.711.617.617,0,0,0,.4.179.635.635,0,0,0,.448-.241c.224-.253.146-.466-.121-.971a1.728,1.728,0,0,1,1.327-2.776,1.5,1.5,0,0,1,.6.124l.154-.174a.572.572,0,0,1,.426-.2.47.47,0,0,1,.319.12.531.531,0,0,1,.007.748l-.155.173a1.829,1.829,0,0,1,.228.825.6.6,0,0,1-.483.588.7.7,0,0,1-.1.01.47.47,0,0,1-.477-.458v-.01a.7.7,0,0,0-.231-.527.533.533,0,0,0-.354-.151.563.563,0,0,0-.413.2c-.225.251-.145.468.124.971a1.694,1.694,0,0,1-.081,2.192,1.744,1.744,0,0,1-1.289.637,1.489,1.489,0,0,1-.624-.138l-.151.169A.574.574,0,0,1,3892.453,2168.051Z" transform="translate(-3891.963 -2162.496)"/></g><path class="f" d="M3898.3,2173.073h0l-.832-1.31h0c-.9-1.393-3.31-1.449-5.4-.124s-3.065,3.546-2.171,4.95l.818,1.287h0c.893,1.4,3.313,1.466,5.4.137S3899.183,2174.478,3898.3,2173.073Z" transform="translate(-3889.567 -2157.05)"/><path class="g" d="M3892.071,2171.637c2.089-1.327,4.511-1.269,5.4.135s-.08,3.62-2.172,4.95-4.511,1.268-5.4-.135S3889.978,2172.967,3892.071,2171.637Z" transform="translate(-3889.567 -2157.051)"/><g transform="translate(1.732 15.28)"><path class="e" d="M3892.374,2175.407a1.17,1.17,0,0,1-.731-.255l-.1.066a.512.512,0,0,1-.275.081.422.422,0,0,1-.425-.518.509.509,0,0,1,.223-.311l.095-.059a1.509,1.509,0,0,1,.02-.844.518.518,0,0,1,.484-.349h.026a.42.42,0,0,1,.389.543.614.614,0,0,0,.069.524.347.347,0,0,0,.289.193.459.459,0,0,0,.245-.085c.175-.11.175-.232.085-.657a1.339,1.339,0,0,1,.533-1.635,1.381,1.381,0,0,1,.734-.22,1.2,1.2,0,0,1,.729.241l.107-.069a.53.53,0,0,1,.275-.081.433.433,0,0,1,.371.2.42.42,0,0,1,.043.36.509.509,0,0,1-.211.275l-.109.069a1.457,1.457,0,0,1-.015.63.513.513,0,0,1-.489.377h-.051a.434.434,0,0,1-.323-.194.421.421,0,0,1-.051-.334.463.463,0,0,0-.051-.375.309.309,0,0,0-.265-.164.381.381,0,0,0-.2.062c-.173.11-.173.232-.083.659a1.339,1.339,0,0,1-.535,1.635A1.5,1.5,0,0,1,3892.374,2175.407Z" transform="translate(-3890.827 -2171.88)"/></g><path class="f" d="M3904.469,2177.693h0l1.632-.9h0c1.735-.978,1.977-3.868.535-6.463s-4.033-3.931-5.783-2.961l-1.6.888h0c-1.749.969-2,3.868-.55,6.473S3902.719,2178.657,3904.469,2177.693Z" transform="translate(-3886.496 -2158.412)"/><path class="g" d="M3900.417,2167.362c1.748-.969,4.337.357,5.782,2.962s1.2,5.506-.55,6.475-4.338-.356-5.783-2.962S3898.667,2168.332,3900.417,2167.362Z" transform="translate(-3886.059 -2158.414)"/><g transform="translate(14.995 10.655)"><path class="e" d="M3903.968,2174.5a.553.553,0,0,1-.476-.294l-.1-.173a1.67,1.67,0,0,1-.275.022,1.761,1.761,0,0,1-.525-.081.588.588,0,0,1-.389-.641.482.482,0,0,1,.239-.352.459.459,0,0,1,.227-.058.515.515,0,0,1,.153.023.758.758,0,0,0,.22.036.6.6,0,0,0,.292-.076.445.445,0,0,0,.244-.3.5.5,0,0,0-.061-.345.4.4,0,0,0-.413-.226,3.078,3.078,0,0,0-.447.048,4.206,4.206,0,0,1-.6.06,1.436,1.436,0,0,1-1.335-.826,1.527,1.527,0,0,1,.137-1.859l-.091-.168a.525.525,0,0,1,.172-.72.478.478,0,0,1,.227-.058.55.55,0,0,1,.476.3l.085.154a1.568,1.568,0,0,1,.392-.045,1.867,1.867,0,0,1,.661.124.583.583,0,0,1,.361.6.477.477,0,0,1-.242.371.469.469,0,0,1-.224.058.488.488,0,0,1-.167-.029.881.881,0,0,0-.3-.055.8.8,0,0,0-.394.1.473.473,0,0,0-.26.616.5.5,0,0,0,.065.113.406.406,0,0,0,.412.226,3.233,3.233,0,0,0,.447-.048,3.892,3.892,0,0,1,.6-.059,1.435,1.435,0,0,1,1.336.825,1.534,1.534,0,0,1-.151,1.787l.1.172a.528.528,0,0,1-.172.721A.485.485,0,0,1,3903.968,2174.5Z" transform="translate(-3900.473 -2168.516)"/></g></g></g></g></g></svg>