<svg id="group_equal" xmlns="http://www.w3.org/2000/svg" width="24" height="24" viewBox="0 0 24 24">
  <path id="Icon_color" data-name="Icon color" d="M21,14H15.831a3.011,3.011,0,0,0-.13-2.34l-1.451-2.9a4.87,4.87,0,0,0-.48-.76h4a2.986,2.986,0,0,1,2.68,1.66l1.441,2.89A1,1,0,0,1,21,14Zm-8,0H1a1,1,0,0,1-.89-1.451l1.44-2.89A2.985,2.985,0,0,1,4.231,8H9.767a2.985,2.985,0,0,1,2.684,1.66l1.44,2.89A1,1,0,0,1,13,14Zm2-8a3,3,0,1,1,3-3A3,3,0,0,1,15,6ZM7,6a3,3,0,1,1,3-3A3,3,0,0,1,7,6Z" transform="translate(1.003 5)" fill="#fff"/>
</svg>
