<svg id="warning" xmlns="http://www.w3.org/2000/svg" width="24" height="24" viewBox="0 0 24 24">
  <path id="Icon_color" data-name="Icon color" d="M21.122,19H.878a.73.73,0,0,1-.64-.38L.1,18.39a.787.787,0,0,1,0-.76L10.21.37A.765.765,0,0,1,10.86,0h.3a.764.764,0,0,1,.65.37L21.9,17.63a.783.783,0,0,1,0,.76l-.139.23A.731.731,0,0,1,21.122,19ZM10.5,13a.5.5,0,0,0-.5.5v1a.5.5,0,0,0,.5.5h1a.5.5,0,0,0,.5-.5v-1a.5.5,0,0,0-.5-.5Zm-.181-6a.5.5,0,0,0-.5.56l.4,3.22a.25.25,0,0,0,.248.22H11.53a.251.251,0,0,0,.25-.22l.4-3.22a.5.5,0,0,0-.5-.56H10.319Z" transform="translate(1.003 2)" fill="#fff"/>
</svg>
