<svg id="insurance" xmlns="http://www.w3.org/2000/svg" width="24" height="24" viewBox="0 0 24 24">
  <path id="Icon_color" data-name="Icon color" d="M18,20H14a1,1,0,0,1-1-1V16.05A3.015,3.015,0,0,1,14.46,13.48l5.3-3.181a1.4,1.4,0,0,1,.74-.21h.039a1.348,1.348,0,0,1,.46.08,1.458,1.458,0,0,1,.81.64,1.486,1.486,0,0,1,.172,1.136,1.508,1.508,0,0,1-.681.924L17.7,15a.561.561,0,0,0-.23.31.5.5,0,0,0,.75.55l3.59-2.16A2.4,2.4,0,0,0,22,9.58V5a1,1,0,1,1,2,0V12.53a2.457,2.457,0,0,1-.941,1.95l-3.69,3a1,1,0,0,0-.37.77V19A1,1,0,0,1,18,20Zm-8,0H6a1,1,0,0,1-1-1v-.8a1.009,1.009,0,0,0-.371-.71l-3.69-3A2.456,2.456,0,0,1,0,12.54V5A1,1,0,1,1,2,5V9.57a2.353,2.353,0,0,0-.67.73,2.42,2.42,0,0,0-.28,1.89A2.483,2.483,0,0,0,2.19,13.73L5.78,15.86a.5.5,0,0,0,.751-.55A.564.564,0,0,0,6.3,15L2.7,12.87a1.5,1.5,0,0,1-.51-2.06A1.464,1.464,0,0,1,3,10.17a1.357,1.357,0,0,1,.461-.08H3.5a1.4,1.4,0,0,1,.74.21l5.3,3.181A3.015,3.015,0,0,1,11,16.05V19A1,1,0,0,1,10,20Zm2-10a5,5,0,1,1,5-5A5.005,5.005,0,0,1,12,10Zm0-8a3,3,0,1,0,3,3A3,3,0,0,0,12,2ZM3.37,9.14H3V5.75l.17-.25a1,1,0,0,1,1.35-.36.994.994,0,0,1,.36,1.35L3.37,9.14ZM21.01,9.1h-.37L19.15,6.48A.981.981,0,0,1,20,5a1.007,1.007,0,0,1,.861.489l.149.26V9.1Z" transform="translate(0 2)" fill="#fff"/>
</svg>
