<svg id="brush" xmlns="http://www.w3.org/2000/svg" width="16" height="16" viewBox="0 0 16 16">
  <path id="Icon_color" data-name="Icon color" d="M1.627,12h0c-.115,0-.231,0-.345-.012H1.274a1.942,1.942,0,0,1-1.177-.4.333.333,0,0,1-.04-.419A3.951,3.951,0,0,0,.649,9.005a3,3,0,0,1,.8-2.226A2.65,2.65,0,0,1,3.332,6c.057,0,.111,0,.165,0s.109,0,.163,0a.726.726,0,0,1,.393.213L5.792,7.957A.668.668,0,0,1,6,8.336v.326a2.677,2.677,0,0,1-.779,1.889A5.15,5.15,0,0,1,1.627,12ZM6.671,7.054a.335.335,0,0,1-.24-.1L5.039,5.561a.332.332,0,0,1,0-.479L10.468.092a.334.334,0,0,1,.46,0l.959.958A.332.332,0,0,1,12,1.285a.336.336,0,0,1-.092.244l-5,5.423A.335.335,0,0,1,6.671,7.054Z" transform="translate(1.997 2)" fill="#fff"/>
</svg>
