<svg xmlns="http://www.w3.org/2000/svg" xmlns:xlink="http://www.w3.org/1999/xlink" width="22" height="22" viewBox="0 0 22 22"><defs><style>.a,.e,.j{fill:none;}.b{clip-path:url(#a);}.c{fill:#2767f4;}.d{fill:#4988fd;}.e{stroke:#1676ee;}.e,.j{stroke-linecap:round;stroke-linejoin:round;stroke-width:3px;}.f{fill:#3973f4;}.g{fill:#fff;}.h{fill:#636363;}.i{fill:#828282;}.j{stroke:#666;}.k{fill:#707070;}</style><clipPath id="a"><rect class="a" width="22" height="22" transform="translate(0 -0.37)"/></clipPath></defs><g transform="translate(0 0.37)"><g transform="translate(0 0)"><g class="b"><g transform="translate(0.004 1.1)"><path class="c" d="M3907.146,2235.547h-5.58l-9.189.008a2.641,2.641,0,0,0-2.427,2.633v6.05h19.837v-6.05a2.639,2.639,0,0,0-2.639-2.641Zm-12.4,2.2a.558.558,0,1,1,.558-.558h0a.557.557,0,0,1-.557.56h0Zm10.05,0a.558.558,0,1,1,.559-.558h0a.558.558,0,0,1-.557.56h0Z" transform="translate(-3888.967 -2235.547)"/><path class="d" d="M3889.95,2242.1v8.188a2.641,2.641,0,0,0,2.64,2.641h14.555a2.64,2.64,0,0,0,2.64-2.641V2242.1Z" transform="translate(-3888.967 -2233.091)"/><path class="e" d="M3889.928,2244.168" transform="translate(-3888.975 -2232.314)"/><g transform="translate(0 2.662)"><path class="f" d="M3890.224,2244.578l-.962-5.007c-.219-1.133.962-2.089,2.633-2.089h16.741c1.677,0,2.82.963,2.563,2.089l-1.134,5.007" transform="translate(-3889.235 -2237.483)"/></g><path class="g" d="M3896.577,2248.886a2.566,2.566,0,0,1-2.848-2.251l-.005-.044v-.147h.719v.137a2.2,2.2,0,0,0,4.262-.152c0-1.044-.845-1.667-2.263-1.667h-1.059v-.687h1.048c1.134,0,1.925-.653,1.925-1.584a1.669,1.669,0,0,0-1.779-1.554.83.83,0,0,0-.085.009,1.745,1.745,0,0,0-1.87,1.538l-.009.138h-.72l.01-.151a2.437,2.437,0,0,1,2.612-2.2,2.358,2.358,0,0,1,2.574,2.117l.005.074a2,2,0,0,1-1.264,1.907,2.044,2.044,0,0,1,1.617,2.055,2.632,2.632,0,0,1-2.786,2.468Z" transform="translate(-3887.552 -2233.78)"/><path class="g" d="M3900.566,2248.738v-7.488c-.242.154-.584.377-.917.593l-.049.033c-.386.253-.787.513-1.034.668l-.22.137v-.833l.067-.043c.2-.126.5-.32.814-.528.5-.324,1.064-.694,1.411-.9l.033-.021h.622v8.387Z" transform="translate(-3885.819 -2233.745)"/></g></g></g><g transform="translate(0 0)"><g class="b"><g transform="translate(0.004 1.1)"><path class="h" d="M3907.146,2235.547h-5.58l-9.189.008a2.641,2.641,0,0,0-2.427,2.633v6.05h19.837v-6.05a2.639,2.639,0,0,0-2.639-2.641Zm-12.4,2.2a.558.558,0,1,1,.558-.558h0a.557.557,0,0,1-.557.56h0Zm10.05,0a.558.558,0,1,1,.559-.558h0a.558.558,0,0,1-.557.56h0Z" transform="translate(-3888.967 -2235.547)"/><path class="i" d="M3889.95,2242.1v8.188a2.641,2.641,0,0,0,2.64,2.641h14.555a2.64,2.64,0,0,0,2.64-2.641V2242.1Z" transform="translate(-3888.967 -2233.091)"/><path class="j" d="M3889.928,2244.168" transform="translate(-3888.975 -2232.314)"/><g transform="translate(0 2.662)"><path class="k" d="M3890.224,2244.578l-.962-5.007c-.219-1.133.962-2.089,2.633-2.089h16.741c1.677,0,2.82.963,2.563,2.089l-1.134,5.007" transform="translate(-3889.235 -2237.483)"/></g><path class="g" d="M3896.577,2248.886a2.566,2.566,0,0,1-2.848-2.251l-.005-.044v-.147h.719v.137a2.2,2.2,0,0,0,4.262-.152c0-1.044-.845-1.667-2.263-1.667h-1.059v-.687h1.048c1.134,0,1.925-.653,1.925-1.584a1.669,1.669,0,0,0-1.779-1.554.83.83,0,0,0-.085.009,1.745,1.745,0,0,0-1.87,1.538l-.009.138h-.72l.01-.151a2.437,2.437,0,0,1,2.612-2.2,2.358,2.358,0,0,1,2.574,2.117l.005.074a2,2,0,0,1-1.264,1.907,2.044,2.044,0,0,1,1.617,2.055,2.632,2.632,0,0,1-2.786,2.468Z" transform="translate(-3887.552 -2233.78)"/><path class="g" d="M3900.566,2248.738v-7.488c-.242.154-.584.377-.917.593l-.049.033c-.386.253-.787.513-1.034.668l-.22.137v-.833l.067-.043c.2-.126.5-.32.814-.528.5-.324,1.064-.694,1.411-.9l.033-.021h.622v8.387Z" transform="translate(-3885.819 -2233.745)"/></g></g></g></g></svg>