<svg id="checkmark_square_outlined" xmlns="http://www.w3.org/2000/svg" width="16" height="16" viewBox="0 0 16 16">
  <path id="Icon_color" data-name="Icon color" d="M10.667,12H1.333A1.335,1.335,0,0,1,0,10.667V1.333A1.335,1.335,0,0,1,1.333,0h9.334A1.335,1.335,0,0,1,12,1.333v9.334A1.335,1.335,0,0,1,10.667,12ZM1.333,1.333v9.334h9.334V1.333Zm3.567,7a.321.321,0,0,1-.233-.1L3.08,6.653a.331.331,0,0,1-.1-.237.335.335,0,0,1,.1-.236l.353-.353a.321.321,0,0,1,.467,0l1,.994L8.06,3.66a.333.333,0,0,1,.467,0l.353.353a.334.334,0,0,1,0,.473L5.134,8.233A.321.321,0,0,1,4.9,8.335Z" transform="translate(2 2)" fill="#353a40"/>
</svg>
