<svg id="diamond" xmlns="http://www.w3.org/2000/svg" width="24" height="24" viewBox="0 0 24 24">
  <path id="Icon_color" data-name="Icon color" d="M10,18H10a.994.994,0,0,1-.766-.36L.23,6.78A1,1,0,0,1,0,6.14v-.3a1,1,0,0,1,.26-.68L4.41.65A2.009,2.009,0,0,1,5.88,0h8.24a2.006,2.006,0,0,1,1.47.65l4.15,4.51a1,1,0,0,1,.26.68v.3a1,1,0,0,1-.229.64l-9,10.86A1,1,0,0,1,10,18ZM2.625,5.981a.254.254,0,0,0-.095.489l6.65,8a.268.268,0,0,0,.24.151.266.266,0,0,0,.239-.381L7.27,6.69A1,1,0,0,0,6.32,6H2.72A.25.25,0,0,0,2.625,5.981Zm11.5-3.863a.253.253,0,0,0-.184.081L10.88,5.58a.249.249,0,0,0-.045.273A.253.253,0,0,0,11.063,6H17.24a.251.251,0,0,0,.18-.42L14.31,2.2A.254.254,0,0,0,14.125,2.119Z" transform="translate(2 3)" fill="#fff"/>
</svg>
