<svg id="save" xmlns="http://www.w3.org/2000/svg" width="16" height="16" viewBox="0 0 16 16">
  <path id="Icon_color" data-name="Icon color" d="M10.667,12H1.333A1.335,1.335,0,0,1,0,10.667V1.333A1.335,1.335,0,0,1,1.333,0H8.78a1.343,1.343,0,0,1,.947.394l1.88,1.88A1.343,1.343,0,0,1,12,3.22v7.447A1.335,1.335,0,0,1,10.667,12ZM3,5.333a.334.334,0,0,0-.334.333v5H9.334v-5A.334.334,0,0,0,9,5.333Zm1-4v1a.333.333,0,0,0,.333.333H7.667A.333.333,0,0,0,8,2.333v-1Zm3.667,8H4.333A.334.334,0,0,1,4,9V8.333A.334.334,0,0,1,4.333,8H7.667A.334.334,0,0,1,8,8.333V9A.334.334,0,0,1,7.667,9.334Z" transform="translate(2 2)" fill="#fff"/>
</svg>
