<svg xmlns="http://www.w3.org/2000/svg" width="21.999" height="21.997" viewBox="0 0 21.999 21.997"><defs><style>.a{fill:#4988fd;}.b{fill:#2767f4;}.c{fill:none;}.d{fill:#6097fd;}.e{fill:#dfecfd;}.f{fill:#828282;}.g{fill:#636363;}.h{fill:#929292;}.i{fill:#eaeaea;}</style></defs><g transform="translate(-3889.233 -2076.747)"><g transform="translate(3889.233 2076.747)"><path class="a" d="M3904.591,2077.053v6.814a.307.307,0,0,1-.305.308h-10.952a.307.307,0,0,1-.307-.308v-6.814a.306.306,0,0,1,.3-.307h10.954a.3.3,0,0,1,.305.305Z" transform="translate(-3887.81 -2076.747)"/><path class="b" d="M3904.591,2077.053v5.613h-11.563v-5.613a.306.306,0,0,1,.3-.307h10.954a.3.3,0,0,1,.305.305Z" transform="translate(-3887.81 -2076.747)"/><line class="c" x1="11.471" transform="translate(5.263 6.041)"/><rect class="a" width="11.008" height="3.513" transform="translate(2.429 9.978)"/><g transform="translate(9.047 7.429)"><path class="b" d="M3895.813,2083.624a1.7,1.7,0,0,0,.413-1.474h3.089a1.7,1.7,0,0,0,.413,1.474" transform="translate(-3895.813 -2082.15)"/></g><rect class="d" width="21.999" height="1.228" transform="translate(0 8.901)"/><rect class="b" width="0.491" height="0.575" transform="translate(1.758 21.423)"/><rect class="a" width="1.258" height="11.394" transform="translate(1.375 10.129)"/><rect class="b" width="0.491" height="0.575" transform="translate(13.624 21.423)"/><rect class="b" width="0.491" height="0.575" transform="translate(19.857 21.423)"/><rect class="d" width="9.101" height="1.841" transform="translate(3.401 10.89)"/><path class="a" d="M3906.443,2084.113v11.393H3898.8v-11.393" transform="translate(-3885.646 -2073.985)"/><rect class="d" width="5.801" height="2.518" rx="0.915" transform="translate(14.05 11.295)"/><circle class="e" cx="0.399" cy="0.399" r="0.399" transform="translate(16.484 12.002)"/><circle class="e" cx="0.345" cy="0.345" r="0.345" transform="translate(7.602 11.465)"/><rect class="d" width="5.801" height="2.518" rx="0.915" transform="translate(14.05 14.645)"/><circle class="e" cx="0.399" cy="0.399" r="0.399" transform="translate(16.484 15.351)"/><rect class="d" width="5.801" height="2.518" rx="0.915" transform="translate(14.05 17.993)"/><circle class="e" cx="0.399" cy="0.399" r="0.399" transform="translate(16.484 18.7)"/></g><g transform="translate(3889.233 2076.747)"><path class="f" d="M3904.591,2077.053v6.814a.307.307,0,0,1-.305.308h-10.952a.307.307,0,0,1-.307-.308v-6.814a.306.306,0,0,1,.3-.307h10.954a.3.3,0,0,1,.305.305Z" transform="translate(-3887.81 -2076.747)"/><path class="g" d="M3904.591,2077.053v5.613h-11.563v-5.613a.306.306,0,0,1,.3-.307h10.954a.3.3,0,0,1,.305.305Z" transform="translate(-3887.81 -2076.747)"/><line class="c" x1="11.471" transform="translate(5.263 6.041)"/><rect class="f" width="11.008" height="3.513" transform="translate(2.429 9.978)"/><g transform="translate(9.047 7.429)"><path class="g" d="M3895.813,2083.624a1.7,1.7,0,0,0,.413-1.474h3.089a1.7,1.7,0,0,0,.413,1.474" transform="translate(-3895.813 -2082.15)"/></g><rect class="h" width="21.999" height="1.228" transform="translate(0 8.901)"/><rect class="g" width="0.491" height="0.575" transform="translate(1.758 21.423)"/><rect class="f" width="1.258" height="11.394" transform="translate(1.375 10.129)"/><rect class="g" width="0.491" height="0.575" transform="translate(13.624 21.423)"/><rect class="g" width="0.491" height="0.575" transform="translate(19.857 21.423)"/><rect class="h" width="9.101" height="1.841" transform="translate(3.401 10.89)"/><path class="f" d="M3906.443,2084.113v11.393H3898.8v-11.393" transform="translate(-3885.646 -2073.985)"/><rect class="h" width="5.801" height="2.518" rx="0.915" transform="translate(14.05 11.295)"/><circle class="i" cx="0.399" cy="0.399" r="0.399" transform="translate(16.484 12.002)"/><circle class="i" cx="0.345" cy="0.345" r="0.345" transform="translate(7.602 11.465)"/><rect class="h" width="5.801" height="2.518" rx="0.915" transform="translate(14.05 14.645)"/><circle class="i" cx="0.399" cy="0.399" r="0.399" transform="translate(16.484 15.351)"/><rect class="h" width="5.801" height="2.518" rx="0.915" transform="translate(14.05 17.993)"/><circle class="i" cx="0.399" cy="0.399" r="0.399" transform="translate(16.484 18.7)"/></g></g></svg>