<svg xmlns="http://www.w3.org/2000/svg" width="12" height="12" viewBox="0 0 12 12">
  <g id="info_outined" transform="translate(-1.333 -1.333)">
    <path id="Icon_color" data-name="Icon color" d="M6,12a6,6,0,1,1,6-6A6.007,6.007,0,0,1,6,12ZM6,1.2A4.8,4.8,0,1,0,10.8,6,4.806,4.806,0,0,0,6,1.2Zm.3,7.2H5.7a.3.3,0,0,1-.3-.3V6.3A.3.3,0,0,1,5.7,6h.6a.3.3,0,0,1,.3.3V8.1A.3.3,0,0,1,6.3,8.4Zm0-3.6H5.7a.3.3,0,0,1-.3-.3V3.9a.3.3,0,0,1,.3-.3h.6a.3.3,0,0,1,.3.3v.6A.3.3,0,0,1,6.3,4.8Z" transform="translate(1.333 1.333)" fill="#cfd4da"/>
  </g>
</svg>
