<svg xmlns="http://www.w3.org/2000/svg" xmlns:xlink="http://www.w3.org/1999/xlink" width="30" height="30" viewBox="0 0 30 30">
  <defs>
    <clipPath id="clip-path">
      <rect id="SVGID" width="30" height="30" transform="translate(0 0.001)" fill="none"/>
    </clipPath>
  </defs>
  <g id="Сгруппировать_612" data-name="Сгруппировать 612" transform="translate(0 -0.376)">
    <g id="Сгруппировать_581" data-name="Сгруппировать 581" transform="translate(0 0.376)">
      <g id="Сгруппировать_580" data-name="Сгруппировать 580" clip-path="url(#clip-path)">
        <g id="Enmascarar_grupo_42" data-name="Enmascarar grupo 42" transform="translate(-0.006 0.791)">
          <g id="Keys">
            <g id="Grupo_514" data-name="Grupo 514" transform="translate(3.878 3.294)">
              <path id="Trazado_727" data-name="Trazado 727" d="M3895.946,2113.2a1.427,1.427,0,1,1-1.333-1.516h0A1.426,1.426,0,0,1,3895.946,2113.2Zm-4.611-.3a6.052,6.052,0,0,0,11.6,2.778l1.216.079a2.143,2.143,0,0,0,1.307-.343l.926-.61a.333.333,0,0,1,.452.084l.741,1.005a.243.243,0,0,0,.337.05.252.252,0,0,0,.05-.05l.186-.245.8.052a.648.648,0,0,0,.568-.269.335.335,0,0,1,.469-.08.2.2,0,0,1,.039.033l.639.631a.648.648,0,0,0,.418.188l.542.035a.661.661,0,0,0,.483-.169l.511-.465a.339.339,0,0,1,.454,0l.659.618a.664.664,0,0,0,.406.176l.5.032a1.267,1.267,0,0,0,.926-.319l1.391-1.3c.021-.022.041-.044.059-.068a.4.4,0,0,0-.1-.551l-.009-.005-.29-.186-2.118-1.384a1.293,1.293,0,0,0-.611-.2l-10.662-.694a.189.189,0,0,0-.017-.054,6.05,6.05,0,0,0-11.869,1.206Z" transform="translate(-3891.323 -2107.226)" fill="#3973f4"/>
              <path id="Trazado_728" data-name="Trazado 728" d="M3897.874,2110.427l13.448.878.289.185a.392.392,0,0,1,.115.541l0,0-13.888-.907a.354.354,0,0,1,.046-.7Z" transform="translate(-3886.034 -2104.503)" fill="#2767f4"/>
            </g>
            <g id="Grupo_515" data-name="Grupo 515" transform="translate(2.333 6.924)">
              <path id="Trazado_729" data-name="Trazado 729" d="M3895.527,2114.236a1.427,1.427,0,1,1,0-2.019A1.427,1.427,0,0,1,3895.527,2114.236Zm-3.266-3.269a6.052,6.052,0,0,0,6.886,9.74l.863.861a2.13,2.13,0,0,0,1.208.605l1.1.157a.333.333,0,0,1,.289.359l-.109,1.246a.246.246,0,0,0,.07.185.249.249,0,0,0,.224.065l.3-.067.567.569a.653.653,0,0,0,.605.172.334.334,0,0,1,.4.245c0,.018.005.037.007.057l.063.9a.648.648,0,0,0,.185.418l.385.385a.65.65,0,0,0,.474.185l.691-.013a.336.336,0,0,1,.337.3l.09.9a.658.658,0,0,0,.185.4l.353.352a1.271,1.271,0,0,0,.9.371l1.9-.056a.345.345,0,0,0,.088-.011.39.39,0,0,0,.278-.478v-.006l-.093-.333-.68-2.433a1.27,1.27,0,0,0-.326-.556l-7.555-7.557c0-.017.015-.033.024-.05a6.049,6.049,0,0,0-9.717-6.921Z" transform="translate(-3890.489 -2109.187)" fill="#4988fd"/>
              <path id="Trazado_730" data-name="Trazado 730" d="M3896.431,2114.506l9.531,9.53.093.332a.391.391,0,0,1-.268.483l-.007,0-9.848-9.846a.354.354,0,0,1,.5-.5Z" transform="translate(-3885.936 -2104.737)" fill="#3973f4"/>
            </g>
            <path id="Trazado_731" data-name="Trazado 731" d="M3900.352,2108.876a6.141,6.141,0,0,0-.8-.108c-.139,0-.279-.015-.421-.011a4.787,4.787,0,1,0-7.837,5.471h0a4.72,4.72,0,0,0,1.155,1.05,4.4,4.4,0,0,0,.72.383,4.538,4.538,0,0,0,1.063.313,4.647,4.647,0,0,0,1.631,0h0a4.34,4.34,0,0,0,.8-.208.445.445,0,0,1,.186-.028,1.008,1.008,0,0,1,.074.164,1.4,1.4,0,0,1,.051.841,5.761,5.761,0,0,1-1.929.332,5.511,5.511,0,0,1-.74-.048,5.651,5.651,0,0,1-.839-.17,5.712,5.712,0,0,1-1.481-.654,5.873,5.873,0,0,1-1.5-1.341,5.814,5.814,0,0,1,9.125-7.206,5.655,5.655,0,0,1,.741,1.22Z" transform="translate(-3889.229 -2105.447)" fill="#2767f4"/>
          </g>
        </g>
      </g>
    </g>
  </g>
</svg>
