<svg xmlns="http://www.w3.org/2000/svg" xmlns:xlink="http://www.w3.org/1999/xlink" width="22" height="22" viewBox="0 0 22 22">
  <defs>
    <clipPath id="clip-path">
      <rect id="SVGID" width="22" height="22" transform="translate(35 153.6)" fill="none"/>
    </clipPath>
  </defs>
  <g id="Группа_масок_47" data-name="Группа масок 47" transform="translate(-35 -153.6)" clip-path="url(#clip-path)">
    <g id="Enmascarar_grupo_42" data-name="Enmascarar grupo 42" transform="translate(34.996 154.562)">
      <g id="Keys">
        <g id="Grupo_514" data-name="Grupo 514" transform="translate(2.88 2.446)">
          <path id="Trazado_727" data-name="Trazado 727" d="M3894.756,2111.661a1.06,1.06,0,1,1-.99-1.126h0A1.059,1.059,0,0,1,3894.756,2111.661Zm-3.424-.224a4.494,4.494,0,0,0,8.613,2.063l.9.059a1.592,1.592,0,0,0,.971-.254l.688-.453a.247.247,0,0,1,.335.062l.55.747a.18.18,0,0,0,.25.037.191.191,0,0,0,.037-.037l.137-.182.6.039a.482.482,0,0,0,.422-.2.249.249,0,0,1,.348-.059.17.17,0,0,1,.029.025l.475.469a.479.479,0,0,0,.311.139l.4.026a.493.493,0,0,0,.359-.125l.379-.345a.25.25,0,0,1,.337,0l.49.459a.491.491,0,0,0,.3.131l.37.023a.94.94,0,0,0,.688-.237l1.033-.962c.015-.017.03-.033.044-.051a.294.294,0,0,0-.076-.408l-.007,0-.215-.138-1.573-1.027a.961.961,0,0,0-.454-.15l-7.917-.516a.146.146,0,0,0-.012-.04,4.492,4.492,0,0,0-8.814.9Z" transform="translate(-3891.323 -2107.226)" fill="#707070"/>
          <path id="Trazado_728" data-name="Trazado 728" d="M3897.786,2110.426l9.987.652.214.137a.291.291,0,0,1,.085.4l0,0-10.312-.674a.263.263,0,0,1-.22-.3.26.26,0,0,1,.254-.222Z" transform="translate(-3888.994 -2106.027)" fill="#636363"/>
        </g>
        <g id="Grupo_515" data-name="Grupo 515" transform="translate(1.733 5.142)">
          <path id="Trazado_729" data-name="Trazado 729" d="M3894.23,2112.936a1.06,1.06,0,1,1,0-1.5A1.059,1.059,0,0,1,3894.23,2112.936Zm-2.425-2.427a4.494,4.494,0,0,0,5.113,7.233l.641.639a1.582,1.582,0,0,0,.9.449l.817.117a.248.248,0,0,1,.214.267l-.081.926a.181.181,0,0,0,.052.137.185.185,0,0,0,.167.048l.22-.05.421.422a.485.485,0,0,0,.449.127.248.248,0,0,1,.3.182.378.378,0,0,1,.005.043l.047.666a.481.481,0,0,0,.138.311l.286.286a.484.484,0,0,0,.353.137l.513-.01a.248.248,0,0,1,.25.224l.067.668a.487.487,0,0,0,.138.3l.261.261a.945.945,0,0,0,.671.275l1.411-.041a.257.257,0,0,0,.066-.008.289.289,0,0,0,.207-.355v0l-.069-.248-.5-1.807a.937.937,0,0,0-.242-.413l-5.61-5.612c0-.012.011-.025.018-.037a4.492,4.492,0,0,0-7.216-5.14Z" transform="translate(-3890.489 -2109.187)" fill="#828282"/>
          <path id="Trazado_730" data-name="Trazado 730" d="M3896.278,2114.481l7.077,7.077.069.246a.29.29,0,0,1-.2.359h-.005l-7.312-7.311a.263.263,0,0,1,.372-.371Z" transform="translate(-3888.484 -2107.227)" fill="#707070"/>
        </g>
        <path id="Trazado_731" data-name="Trazado 731" d="M3897.489,2107.994a4.523,4.523,0,0,0-.6-.08c-.1,0-.208-.011-.312-.008a3.555,3.555,0,1,0-5.82,4.063h0a3.5,3.5,0,0,0,.858.78,3.3,3.3,0,0,0,.535.285,3.368,3.368,0,0,0,.789.232,3.449,3.449,0,0,0,1.212,0h0a3.225,3.225,0,0,0,.591-.154.335.335,0,0,1,.138-.021.748.748,0,0,1,.055.122,1.041,1.041,0,0,1,.038.624,4.27,4.27,0,0,1-1.433.246,4.066,4.066,0,0,1-.55-.036,4.162,4.162,0,0,1-.623-.126,4.241,4.241,0,0,1-1.1-.485,4.37,4.37,0,0,1-1.113-1,4.317,4.317,0,0,1,6.776-5.352,4.226,4.226,0,0,1,.55.906Z" transform="translate(-3889.229 -2105.447)" fill="#636363"/>
      </g>
    </g>
  </g>
</svg>
