<svg id="receipt" xmlns="http://www.w3.org/2000/svg" width="16" height="16" viewBox="0 0 16 16">
  <path id="Icon_color" data-name="Icon color" d="M1.884,13.333h-.2a.317.317,0,0,1-.229-.1L.193,11.98A.7.7,0,0,1,0,11.507V.667A.667.667,0,0,1,.667,0H10a.667.667,0,0,1,.667.667V11.533a.663.663,0,0,1-.193.467L9.2,13.207a.313.313,0,0,1-.229.1h-.2a.315.315,0,0,1-.229-.1L7.333,12a.34.34,0,0,0-.453,0L5.674,13.207a.315.315,0,0,1-.229.1h-.2a.313.313,0,0,1-.229-.1L3.806,12a.339.339,0,0,0-.473,0l-1.22,1.234A.315.315,0,0,1,1.884,13.333ZM3,6.667A.334.334,0,0,0,2.666,7v.667A.334.334,0,0,0,3,8H5.666A.334.334,0,0,0,6,7.667V7a.334.334,0,0,0-.334-.334ZM3,4a.334.334,0,0,0-.334.333V5A.334.334,0,0,0,3,5.333H7.667A.334.334,0,0,0,8,5V4.333A.333.333,0,0,0,7.667,4Z" transform="translate(2.667 1.333)" fill="#fff"/>
</svg>
