<svg xmlns="http://www.w3.org/2000/svg" xmlns:xlink="http://www.w3.org/1999/xlink" width="16" height="16" viewBox="0 0 16 16">
  <defs>
    <clipPath id="clip-path">
      <rect id="Прямоугольник_833" data-name="Прямоугольник 833" width="16" height="16" transform="translate(1192 237)" fill="none" stroke="#707070" stroke-width="1"/>
    </clipPath>
  </defs>
  <g id="Группа_масок_48" data-name="Группа масок 48" transform="translate(-1192 -237)" clip-path="url(#clip-path)">
    <g id="lock" transform="translate(1194.8 238.2)">
      <path id="Icon_color" data-name="Icon color" d="M9.1,13.6H1.3A1.332,1.332,0,0,1,0,12.24V6.8A1.332,1.332,0,0,1,1.3,5.44V4.08A4,4,0,0,1,5.2,0,4,4,0,0,1,9.1,4.08V5.44A1.333,1.333,0,0,1,10.4,6.8v5.44A1.332,1.332,0,0,1,9.1,13.6ZM4.55,8.16a.666.666,0,0,0-.65.68V10.2a.666.666,0,0,0,.65.68h1.3a.666.666,0,0,0,.65-.68V8.84a.666.666,0,0,0-.65-.68Zm.65-6.8A2.665,2.665,0,0,0,2.6,4.08V5.44H7.8V4.08A2.665,2.665,0,0,0,5.2,1.36Z" fill="#353a40"/>
    </g>
  </g>
</svg>
