<svg xmlns="http://www.w3.org/2000/svg" xmlns:xlink="http://www.w3.org/1999/xlink" width="30" height="30" viewBox="0 0 30 30">
  <defs>
    <clipPath id="clip-path">
      <rect id="SVGID" width="30" height="30" fill="none"/>
    </clipPath>
  </defs>
  <g id="Сгруппировать_907" data-name="Сгруппировать 907" transform="translate(0 -0.13)">
    <g id="Сгруппировать_585" data-name="Сгруппировать 585" transform="translate(0 0.13)" clip-path="url(#clip-path)">
      <g id="Enmascarar_grupo_40" data-name="Enmascarar grupo 40" transform="translate(-0.001 1.695)">
        <g id="Cash_2" data-name="Cash 2">
          <g id="Grupo_547" data-name="Grupo 547" transform="translate(0 9.143)">
            <g id="Grupo_546" data-name="Grupo 546">
              <path id="Trazado_847" data-name="Trazado 847" d="M3899.577,2229.467l18.827-10.875c.491-.284.43-.782-.139-1.107l-7.954-4.592a2.133,2.133,0,0,0-1.92-.081l-18.827,10.875c-.493.286-.43.781.137,1.109l7.956,4.592A2.132,2.132,0,0,0,3899.577,2229.467Z" transform="translate(-3889.232 -2212.622)" fill="#3973f4"/>
              <path id="Trazado_848" data-name="Trazado 848" d="M3917.811,2217.458l-18.358,10.6a2.128,2.128,0,0,1-1.918-.078l-7.875-4.545,18.358-10.6a2.129,2.129,0,0,1,1.918.081Z" transform="translate(-3888.857 -2212.601)" fill="#2767f4"/>
              <line id="Línea_121" data-name="Línea 121" x1="0.081" y2="0.047" transform="translate(2.427 9.807)" fill="none"/>
              <line id="Línea_122" data-name="Línea 122" x1="13.924" y2="8.04" transform="translate(4.448 0.649)" fill="none" stroke="#1676ee" stroke-linecap="round" stroke-linejoin="round" stroke-width="3"/>
            </g>
          </g>
          <g id="Grupo_549" data-name="Grupo 549" transform="translate(0 6.878)">
            <g id="Grupo_548" data-name="Grupo 548">
              <path id="Trazado_849" data-name="Trazado 849" d="M3899.577,2228.259l18.827-10.875c.491-.285.43-.78-.139-1.108l-7.954-4.592a2.133,2.133,0,0,0-1.92-.081l-18.827,10.875c-.493.283-.43.78.137,1.108l7.956,4.594A2.131,2.131,0,0,0,3899.577,2228.259Z" transform="translate(-3889.232 -2211.414)" fill="#3973f4"/>
              <path id="Trazado_850" data-name="Trazado 850" d="M3917.811,2216.233l-18.358,10.6a2.133,2.133,0,0,1-1.918-.079l-7.875-4.544,18.358-10.6a2.129,2.129,0,0,1,1.918.081Z" transform="translate(-3888.857 -2211.41)" fill="#2767f4"/>
              <line id="Línea_123" data-name="Línea 123" x1="0.081" y2="0.047" transform="translate(2.427 9.808)" fill="none"/>
              <line id="Línea_124" data-name="Línea 124" x1="13.924" y2="8.04" transform="translate(4.448 0.651)" fill="none" stroke="#1676ee" stroke-linecap="round" stroke-linejoin="round" stroke-width="3"/>
            </g>
          </g>
          <g id="Grupo_551" data-name="Grupo 551" transform="translate(0 4.612)">
            <g id="Grupo_550" data-name="Grupo 550">
              <path id="Trazado_851" data-name="Trazado 851" d="M3899.577,2227.052l18.827-10.875c.491-.283.43-.78-.139-1.108l-7.954-4.594a2.132,2.132,0,0,0-1.92-.079l-18.827,10.875c-.493.283-.43.78.137,1.108l7.956,4.592A2.131,2.131,0,0,0,3899.577,2227.052Z" transform="translate(-3889.232 -2210.206)" fill="#3973f4"/>
              <path id="Trazado_852" data-name="Trazado 852" d="M3917.811,2215.03l-18.358,10.6a2.134,2.134,0,0,1-1.918-.079L3889.66,2221l18.358-10.6a2.13,2.13,0,0,1,1.918.081Z" transform="translate(-3888.857 -2210.196)" fill="#2767f4"/>
              <line id="Línea_126" data-name="Línea 126" x1="13.924" y2="8.04" transform="translate(4.448 0.652)" fill="none" stroke="#1676ee" stroke-linecap="round" stroke-linejoin="round" stroke-width="3"/>
            </g>
          </g>
          <g id="Grupo_553" data-name="Grupo 553" transform="translate(0.002 2.354)">
            <g id="Grupo_552" data-name="Grupo 552">
              <path id="Trazado_853" data-name="Trazado 853" d="M3918.4,2214.966l-18.826,10.875a2.142,2.142,0,0,1-1.918-.079l-7.956-4.592c-.562-.328-.628-.824-.139-1.11l.469-.272,18.36-10.6a2.128,2.128,0,0,1,1.918.081l7.875,4.543.084.049C3918.83,2214.193,3918.892,2214.69,3918.4,2214.966Z" transform="translate(-3889.233 -2209.001)" fill="#3973f4"/>
              <path id="Trazado_854" data-name="Trazado 854" d="M3917.811,2213.816l-18.358,10.6a2.127,2.127,0,0,1-1.918-.078l-7.875-4.545,18.358-10.6a2.129,2.129,0,0,1,1.918.081Z" transform="translate(-3888.859 -2208.999)" fill="#2767f4"/>
            </g>
          </g>
          <g id="Grupo_555" data-name="Grupo 555">
            <g id="Grupo_554" data-name="Grupo 554">
              <path id="Trazado_855" data-name="Trazado 855" d="M3899.577,2224.59l18.827-10.875c.491-.282.43-.78-.139-1.108l-7.954-4.592a2.132,2.132,0,0,0-1.92-.079l-18.827,10.875c-.493.285-.43.78.137,1.11l7.956,4.592A2.132,2.132,0,0,0,3899.577,2224.59Z" transform="translate(-3889.232 -2207.745)" fill="#3973f4"/>
            </g>
            <path id="Trazado_856" data-name="Trazado 856" d="M3904.94,2209.721l-14.062,8.122a.575.575,0,0,1,0,1.087l5.5,3.175a2.077,2.077,0,0,1,1.875,0l15.659-9.041a.574.574,0,0,1,0-1.088l-5.5-3.176a2.076,2.076,0,0,1-1.875,0Z" transform="translate(-3887.791 -2206.822)" fill="#6097fd"/>
            <path id="Trazado_857" data-name="Trazado 857" d="M3901.319,2214.931c-2.372,1.368-6.675-.135-6.285-2.115.289-1.468,3.645-2.137,5.938-.812C3902.424,2212.843,3902.662,2214.151,3901.319,2214.931Z" transform="translate(-3884.176 -2204.642)" fill="#3973f4"/>
            <path id="Trazado_858" data-name="Trazado 858" d="M3899.476,2212.149a.518.518,0,0,1-.259-.965l1.35-.78a.518.518,0,0,1,.518.9l-1.35.778A.5.5,0,0,1,3899.476,2212.149Z" transform="translate(-3880.72 -2205.477)" fill="#3973f4"/>
            <path id="Trazado_859" data-name="Trazado 859" d="M3894.043,2215.266a.518.518,0,0,1-.259-.965l1.279-.739a.518.518,0,0,1,.517.9l-1.279.739A.518.518,0,0,1,3894.043,2215.266Z" transform="translate(-3885.474 -2202.712)" fill="#3973f4"/>
          </g>
          <g id="Grupo_558" data-name="Grupo 558" transform="translate(21.911 7.274)">
            <g id="Grupo_556" data-name="Grupo 556" transform="translate(0 6.872)">
              <path id="Trazado_860" data-name="Trazado 860" d="M3909,2216.552h0v6.546h0c-.178,1.6-7.979,1.6-8.084,0h0v-6.546h0c0-.4.491-.643.86-.789h0a5.311,5.311,0,0,1,.61-.188C3904.707,2214.945,3909,2215.4,3909,2216.552Z" transform="translate(-3900.917 -2215.29)" fill="#fff"/>
              <path id="Trazado_861" data-name="Trazado 861" d="M3909,2216.553h0v6.546h0c0,1.56-7.978,1.635-8.084,0h0v-6.546h0c0-.4.491-.643.86-.79h0C3904.3,2214.832,3909,2215.372,3909,2216.553Z" transform="translate(-3900.917 -2215.29)" fill="#c5dcfa"/>
              <path id="Trazado_862" data-name="Trazado 862" d="M3909.007,2216.635v.563a10.369,10.369,0,0,1-8.088,0v-.563c.257.445,1.75.973,4.044.973S3908.76,2217.082,3909.007,2216.635Z" transform="translate(-3900.917 -2214.113)" fill="#bad3f5"/>
              <path id="Trazado_863" data-name="Trazado 863" d="M3909.007,2217.375v.563a10.366,10.366,0,0,1-8.088,0v-.563c.255.443,1.748.976,4.044.976S3908.76,2217.82,3909.007,2217.375Z" transform="translate(-3900.917 -2213.465)" fill="#bad3f5"/>
              <path id="Trazado_864" data-name="Trazado 864" d="M3909.007,2218.124v.562a10.4,10.4,0,0,1-8.088,0v-.578a5.891,5.891,0,0,0,4.044.977C3907.26,2219.1,3908.76,2218.567,3909.007,2218.124Z" transform="translate(-3900.917 -2212.823)" fill="#bad3f5"/>
              <path id="Trazado_865" data-name="Trazado 865" d="M3909.007,2218.857v.576a10.4,10.4,0,0,1-8.088,0v-.563c.257.443,1.75.973,4.044.973C3907.3,2219.834,3908.76,2219.287,3909.007,2218.857Z" transform="translate(-3900.917 -2212.169)" fill="#bad3f5"/>
              <ellipse id="Elipse_75" data-name="Elipse 75" cx="4.044" cy="1.239" rx="4.044" ry="1.239" fill="#6097fd"/>
            </g>
            <g id="Grupo_557" data-name="Grupo 557">
              <path id="Trazado_866" data-name="Trazado 866" d="M3909,2212.887h0v6.547h0c-.176,1.582-7.979,1.6-8.084,0h0v-6.547h0c0-.4.493-.643.86-.788h0a5.307,5.307,0,0,1,.61-.187C3904.66,2211.292,3909,2211.713,3909,2212.887Z" transform="translate(-3900.917 -2211.623)" fill="#fff"/>
              <path id="Trazado_867" data-name="Trazado 867" d="M3909,2212.888h0v6.959h0c0,.447-.886.784-1.312.893-2.4.678-6.7.226-6.771-.893h0v-6.959h0c0-.4.492-.643.861-.788h0C3904.3,2211.167,3909,2211.707,3909,2212.888Z" transform="translate(-3900.916 -2211.624)" fill="#c5dcfa"/>
              <path id="Trazado_868" data-name="Trazado 868" d="M3909.007,2212.97v.563a10.369,10.369,0,0,1-8.088,0v-.563c.257.443,1.75.973,4.044.973S3908.76,2213.413,3909.007,2212.97Z" transform="translate(-3900.917 -2210.448)" fill="#bad3f5"/>
              <path id="Trazado_869" data-name="Trazado 869" d="M3909.007,2213.71v.563a10.369,10.369,0,0,1-8.088,0v-.562c.255.442,1.748.975,4.044.975S3908.76,2214.155,3909.007,2213.71Z" transform="translate(-3900.917 -2209.8)" fill="#bad3f5"/>
              <path id="Trazado_870" data-name="Trazado 870" d="M3909.007,2214.46v.563a10.416,10.416,0,0,1-8.088,0v-.579a5.9,5.9,0,0,0,4.044.977C3907.26,2215.435,3908.76,2214.9,3909.007,2214.46Z" transform="translate(-3900.917 -2209.159)" fill="#bad3f5"/>
              <path id="Trazado_871" data-name="Trazado 871" d="M3909.007,2215.192v.576a10.4,10.4,0,0,1-8.088,0v-.563c.257.445,1.75.974,4.044.974C3907.3,2216.169,3908.76,2215.621,3909.007,2215.192Z" transform="translate(-3900.917 -2208.504)" fill="#bad3f5"/>
              <path id="Trazado_872" data-name="Trazado 872" d="M3909.007,2215.872v.575a10.4,10.4,0,0,1-8.088,0v-.563c.257.444,1.75.973,4.044.973C3907.3,2216.849,3908.76,2216.3,3909.007,2215.872Z" transform="translate(-3900.917 -2207.908)" fill="#bad3f5"/>
              <ellipse id="Elipse_76" data-name="Elipse 76" cx="4.044" cy="1.239" rx="4.044" ry="1.239" fill="#e1ecfa"/>
            </g>
          </g>
          <g id="Grupo_559" data-name="Grupo 559" transform="translate(16.054 15.571)">
            <path id="Trazado_873" data-name="Trazado 873" d="M3906.093,2217.344h0v6.718h0c-.187,1.646-8.189,1.633-8.3,0h0v-6.718h0c0-.407.5-.66.884-.808h0a5.579,5.579,0,0,1,.626-.187C3901.65,2215.7,3906.093,2216.151,3906.093,2217.344Z" transform="translate(-3897.793 -2216.048)" fill="#fff"/>
            <path id="Trazado_874" data-name="Trazado 874" d="M3906.093,2217.345h0v6.718h0a.666.666,0,0,1-.339.482c-1.758,1.226-7.875.892-7.959-.482h0v-6.718h0c0-.407.5-.658.884-.808h0C3901.264,2215.578,3906.093,2216.134,3906.093,2217.345Z" transform="translate(-3897.793 -2216.05)" fill="#c5dcfa"/>
            <path id="Trazado_875" data-name="Trazado 875" d="M3906.094,2217.43v.583a10.643,10.643,0,0,1-8.3,0v-.583c.264.454,1.8,1,4.151,1S3905.834,2217.886,3906.094,2217.43Z" transform="translate(-3897.794 -2214.842)" fill="#bad3f5"/>
            <path id="Trazado_876" data-name="Trazado 876" d="M3906.094,2218.191v.583a10.646,10.646,0,0,1-8.3,0v-.583c.263.454,1.794,1,4.151,1S3905.834,2218.645,3906.094,2218.191Z" transform="translate(-3897.794 -2214.176)" fill="#bad3f5"/>
            <path id="Trazado_877" data-name="Trazado 877" d="M3906.094,2218.956v.583a10.693,10.693,0,0,1-8.3,0v-.594a6.058,6.058,0,0,0,4.151,1C3904.3,2219.956,3905.834,2219.41,3906.094,2218.956Z" transform="translate(-3897.794 -2213.517)" fill="#bad3f5"/>
            <path id="Trazado_878" data-name="Trazado 878" d="M3906.094,2219.71v.591a10.675,10.675,0,0,1-8.3,0v-.583c.264.455,1.8,1,4.151,1C3904.345,2220.713,3905.838,2220.151,3906.094,2219.71Z" transform="translate(-3897.794 -2212.847)" fill="#bad3f5"/>
            <ellipse id="Elipse_77" data-name="Elipse 77" cx="4.151" cy="1.271" rx="4.151" ry="1.271" fill="#e1ecfa"/>
          </g>
        </g>
      </g>
    </g>
  </g>
</svg>
