<svg xmlns="http://www.w3.org/2000/svg" xmlns:xlink="http://www.w3.org/1999/xlink" width="22" height="22" viewBox="0 0 22 22"><defs><style>.a,.e,.m{fill:none;}.b{clip-path:url(#a);}.c{fill:#3973f4;}.d{fill:#2767f4;}.e{stroke:#1676ee;}.e,.m{stroke-linecap:round;stroke-linejoin:round;stroke-width:3px;}.f{fill:#6097fd;}.g{fill:#fff;}.h{fill:#c5dcfa;}.i{fill:#bad3f5;}.j{fill:#e1ecfa;}.k{fill:#707070;}.l{fill:#636363;}.m{stroke:#666;}.n{fill:#929292;}.o{fill:#d8d8d8;}.p{fill:#cfcfcf;}.q{fill:#eaeaea;}</style><clipPath id="a"><rect class="a" width="22" height="22" transform="translate(0 0.13)"/></clipPath></defs><g transform="translate(0 -0.13)"><g transform="translate(0 0)"><g class="b"><g transform="translate(-0.001 1.373)"><g transform="translate(0 6.705)"><path class="c" d="M3896.818,2224.975l13.806-7.975c.36-.208.315-.573-.1-.812l-5.833-3.368a1.565,1.565,0,0,0-1.408-.059l-13.806,7.975c-.361.209-.315.572.1.813l5.834,3.367A1.565,1.565,0,0,0,3896.818,2224.975Z" transform="translate(-3889.232 -2212.622)"/><path class="d" d="M3910.3,2216.175l-13.462,7.773a1.56,1.56,0,0,1-1.406-.058l-5.775-3.333,13.462-7.771a1.56,1.56,0,0,1,1.407.059Z" transform="translate(-3889.071 -2212.613)"/><line class="a" x1="0.059" y2="0.034" transform="translate(1.78 7.191)"/><line class="e" x1="10.211" y2="5.896" transform="translate(3.262 0.476)"/></g><g transform="translate(0 5.044)"><path class="c" d="M3896.818,2223.767l13.806-7.975c.36-.209.315-.572-.1-.812l-5.833-3.367a1.565,1.565,0,0,0-1.408-.06l-13.806,7.975c-.361.208-.315.572.1.813l5.834,3.369A1.564,1.564,0,0,0,3896.818,2223.767Z" transform="translate(-3889.232 -2211.414)"/><path class="d" d="M3910.3,2214.949l-13.462,7.771a1.564,1.564,0,0,1-1.406-.058l-5.775-3.333,13.462-7.773a1.561,1.561,0,0,1,1.407.059Z" transform="translate(-3889.071 -2211.412)"/><line class="a" x1="0.059" y2="0.034" transform="translate(1.78 7.193)"/><line class="e" x1="10.211" y2="5.896" transform="translate(3.262 0.477)"/></g><g transform="translate(0 3.382)"><path class="c" d="M3896.818,2222.559l13.806-7.975c.36-.208.315-.572-.1-.812l-5.833-3.369a1.564,1.564,0,0,0-1.408-.058l-13.806,7.975c-.361.208-.315.572.1.813l5.834,3.367A1.564,1.564,0,0,0,3896.818,2222.559Z" transform="translate(-3889.232 -2210.205)"/><path class="d" d="M3910.3,2213.746l-13.462,7.771a1.564,1.564,0,0,1-1.406-.058l-5.775-3.333,13.462-7.771a1.562,1.562,0,0,1,1.407.06Z" transform="translate(-3889.071 -2210.201)"/><line class="e" x1="10.211" y2="5.896" transform="translate(3.262 0.478)"/></g><g transform="translate(0.001 1.726)"><path class="c" d="M3910.623,2213.375l-13.806,7.975a1.57,1.57,0,0,1-1.407-.058l-5.834-3.367c-.413-.241-.46-.6-.1-.814l.344-.2,13.464-7.771a1.561,1.561,0,0,1,1.407.059l5.775,3.332.062.036C3910.938,2212.809,3910.983,2213.173,3910.623,2213.375Z" transform="translate(-3889.233 -2209.001)"/><path class="d" d="M3910.3,2212.532l-13.462,7.771a1.559,1.559,0,0,1-1.406-.058l-5.775-3.333,13.462-7.771a1.561,1.561,0,0,1,1.407.059Z" transform="translate(-3889.073 -2209)"/></g><path class="c" d="M3896.818,2220.1l13.806-7.975c.36-.207.315-.572-.1-.812l-5.833-3.367a1.564,1.564,0,0,0-1.408-.058l-13.806,7.975c-.361.209-.315.572.1.814l5.834,3.367A1.565,1.565,0,0,0,3896.818,2220.1Z" transform="translate(-3889.232 -2207.745)"/><path class="f" d="M3901.19,2209.475l-10.312,5.956a.421.421,0,0,1,0,.8l4.033,2.328a1.524,1.524,0,0,1,1.375,0l11.483-6.63a.421.421,0,0,1,0-.8l-4.033-2.329a1.523,1.523,0,0,1-1.375,0Z" transform="translate(-3888.614 -2207.35)"/><path class="c" d="M3899.637,2213.961c-1.739,1-4.9-.1-4.609-1.551.212-1.077,2.673-1.567,4.354-.6C3900.447,2212.429,3900.622,2213.389,3899.637,2213.961Z" transform="translate(-3887.065 -2206.415)"/><path class="c" d="M3899.338,2211.666a.38.38,0,0,1-.19-.708l.99-.572a.379.379,0,0,1,.379.657l-.99.571A.368.368,0,0,1,3899.338,2211.666Z" transform="translate(-3885.584 -2206.773)"/><path class="c" d="M3893.905,2214.795a.38.38,0,0,1-.189-.708l.938-.542a.38.38,0,0,1,.379.657l-.938.542A.379.379,0,0,1,3893.905,2214.795Z" transform="translate(-3887.621 -2205.588)"/><g transform="translate(16.068 5.334)"><g transform="translate(0 5.039)"><path class="g" d="M3906.849,2216.215h0v4.8h0c-.13,1.17-5.852,1.172-5.929,0h0v-4.8h0c0-.292.36-.471.631-.579h0a3.877,3.877,0,0,1,.447-.138C3903.7,2215.037,3906.849,2215.373,3906.849,2216.215Z" transform="translate(-3900.917 -2215.29)"/><path class="h" d="M3906.849,2216.217h0v4.8h0c0,1.144-5.85,1.2-5.929,0h0v-4.8h0c0-.29.36-.472.631-.579h0C3903.4,2214.954,3906.849,2215.35,3906.849,2216.217Z" transform="translate(-3900.917 -2215.29)"/><path class="i" d="M3906.851,2216.635v.413a7.6,7.6,0,0,1-5.932,0v-.413c.188.326,1.283.714,2.966.714S3906.669,2216.962,3906.851,2216.635Z" transform="translate(-3900.918 -2214.785)"/><path class="i" d="M3906.851,2217.375v.413a7.6,7.6,0,0,1-5.932,0v-.413c.187.325,1.282.715,2.966.715S3906.669,2217.7,3906.851,2217.375Z" transform="translate(-3900.918 -2214.508)"/><path class="i" d="M3906.851,2218.12v.412a7.628,7.628,0,0,1-5.932,0v-.424a4.321,4.321,0,0,0,2.966.716C3905.569,2218.835,3906.669,2218.445,3906.851,2218.12Z" transform="translate(-3900.918 -2214.233)"/><path class="i" d="M3906.851,2218.857v.422a7.628,7.628,0,0,1-5.932,0v-.413c.188.325,1.283.714,2.966.714C3905.6,2219.573,3906.669,2219.172,3906.851,2218.857Z" transform="translate(-3900.918 -2213.952)"/><ellipse class="f" cx="2.966" cy="0.909" rx="2.966" ry="0.909"/></g><path class="g" d="M3906.849,2212.551h0v4.8h0c-.129,1.16-5.852,1.177-5.929,0h0v-4.8h0c0-.292.362-.472.631-.578h0a3.923,3.923,0,0,1,.447-.137C3903.663,2211.381,3906.849,2211.69,3906.849,2212.551Z" transform="translate(-3900.917 -2211.624)"/><path class="h" d="M3906.848,2212.552h0v5.1h0c0,.328-.65.575-.962.655-1.757.5-4.91.166-4.965-.655h0v-5.1h0c0-.291.361-.472.631-.578h0C3903.4,2211.29,3906.848,2211.685,3906.848,2212.552Z" transform="translate(-3900.917 -2211.624)"/><path class="i" d="M3906.851,2212.97v.413a7.6,7.6,0,0,1-5.932,0v-.413c.188.325,1.283.714,2.966.714S3906.669,2213.295,3906.851,2212.97Z" transform="translate(-3900.918 -2211.12)"/><path class="i" d="M3906.851,2213.71v.413a7.6,7.6,0,0,1-5.932,0v-.413c.187.324,1.282.715,2.966.715S3906.669,2214.036,3906.851,2213.71Z" transform="translate(-3900.918 -2210.843)"/><path class="i" d="M3906.851,2214.455v.413a7.638,7.638,0,0,1-5.932,0v-.425a4.327,4.327,0,0,0,2.966.716C3905.569,2215.17,3906.669,2214.777,3906.851,2214.455Z" transform="translate(-3900.918 -2210.568)"/><path class="i" d="M3906.851,2215.192v.422a7.628,7.628,0,0,1-5.932,0v-.413c.188.326,1.283.714,2.966.714C3905.6,2215.908,3906.669,2215.507,3906.851,2215.192Z" transform="translate(-3900.918 -2210.287)"/><path class="i" d="M3906.851,2215.872v.422a7.628,7.628,0,0,1-5.932,0v-.413c.188.326,1.283.714,2.966.714C3905.6,2216.589,3906.669,2216.187,3906.851,2215.872Z" transform="translate(-3900.918 -2210.032)"/><ellipse class="j" cx="2.966" cy="0.909" rx="2.966" ry="0.909"/></g><g transform="translate(11.773 11.419)"><path class="g" d="M3903.88,2217h0v4.927h0c-.137,1.207-6.006,1.2-6.085,0h0V2217h0c0-.3.37-.484.648-.593h0a4.084,4.084,0,0,1,.459-.137C3900.622,2215.8,3903.88,2216.125,3903.88,2217Z" transform="translate(-3897.794 -2216.049)"/><path class="h" d="M3903.88,2217h0v4.927h0a.488.488,0,0,1-.249.354c-1.29.9-5.775.654-5.837-.354h0V2217h0c0-.3.37-.482.648-.592h0C3900.339,2215.7,3903.88,2216.112,3903.88,2217Z" transform="translate(-3897.794 -2216.05)"/><path class="i" d="M3903.881,2217.43v.428a7.805,7.805,0,0,1-6.087,0v-.428c.194.333,1.317.733,3.044.733S3903.69,2217.764,3903.881,2217.43Z" transform="translate(-3897.794 -2215.532)"/><path class="i" d="M3903.881,2218.191v.428a7.805,7.805,0,0,1-6.087,0v-.428c.193.333,1.316.733,3.044.733S3903.69,2218.524,3903.881,2218.191Z" transform="translate(-3897.794 -2215.247)"/><path class="i" d="M3903.881,2218.953v.427a7.842,7.842,0,0,1-6.087,0v-.436a4.443,4.443,0,0,0,3.044.734C3902.568,2219.686,3903.69,2219.286,3903.881,2218.953Z" transform="translate(-3897.794 -2214.964)"/><path class="i" d="M3903.881,2219.71v.433a7.829,7.829,0,0,1-6.087,0v-.427c.194.334,1.317.733,3.044.733C3902.6,2220.446,3903.693,2220.033,3903.881,2219.71Z" transform="translate(-3897.794 -2214.677)"/><ellipse class="j" cx="3.044" cy="0.932" rx="3.044" ry="0.932"/></g></g></g></g><g transform="translate(0 0)"><g class="b"><g transform="translate(-0.001 1.373)"><g transform="translate(0 6.705)"><path class="k" d="M3896.818,2224.975l13.806-7.975c.36-.208.315-.573-.1-.812l-5.833-3.368a1.565,1.565,0,0,0-1.408-.059l-13.806,7.975c-.361.209-.315.572.1.813l5.834,3.367A1.565,1.565,0,0,0,3896.818,2224.975Z" transform="translate(-3889.232 -2212.622)"/><path class="l" d="M3910.3,2216.175l-13.462,7.773a1.56,1.56,0,0,1-1.406-.058l-5.775-3.333,13.462-7.771a1.56,1.56,0,0,1,1.407.059Z" transform="translate(-3889.071 -2212.613)"/><line class="a" x1="0.059" y2="0.034" transform="translate(1.78 7.191)"/><line class="m" x1="10.211" y2="5.896" transform="translate(3.262 0.476)"/></g><g transform="translate(0 5.044)"><path class="k" d="M3896.818,2223.767l13.806-7.975c.36-.209.315-.572-.1-.812l-5.833-3.367a1.565,1.565,0,0,0-1.408-.06l-13.806,7.975c-.361.208-.315.572.1.813l5.834,3.369A1.564,1.564,0,0,0,3896.818,2223.767Z" transform="translate(-3889.232 -2211.414)"/><path class="l" d="M3910.3,2214.949l-13.462,7.771a1.564,1.564,0,0,1-1.406-.058l-5.775-3.333,13.462-7.773a1.561,1.561,0,0,1,1.407.059Z" transform="translate(-3889.071 -2211.412)"/><line class="a" x1="0.059" y2="0.034" transform="translate(1.78 7.193)"/><line class="m" x1="10.211" y2="5.896" transform="translate(3.262 0.477)"/></g><g transform="translate(0 3.382)"><path class="k" d="M3896.818,2222.559l13.806-7.975c.36-.208.315-.572-.1-.812l-5.833-3.369a1.564,1.564,0,0,0-1.408-.058l-13.806,7.975c-.361.208-.315.572.1.813l5.834,3.367A1.564,1.564,0,0,0,3896.818,2222.559Z" transform="translate(-3889.232 -2210.205)"/><path class="l" d="M3910.3,2213.746l-13.462,7.771a1.564,1.564,0,0,1-1.406-.058l-5.775-3.333,13.462-7.771a1.562,1.562,0,0,1,1.407.06Z" transform="translate(-3889.071 -2210.201)"/><line class="m" x1="10.211" y2="5.896" transform="translate(3.262 0.478)"/></g><g transform="translate(0.001 1.726)"><path class="k" d="M3910.623,2213.375l-13.806,7.975a1.57,1.57,0,0,1-1.407-.058l-5.834-3.367c-.413-.241-.46-.6-.1-.814l.344-.2,13.464-7.771a1.561,1.561,0,0,1,1.407.059l5.775,3.332.062.036C3910.938,2212.809,3910.983,2213.173,3910.623,2213.375Z" transform="translate(-3889.233 -2209.001)"/><path class="l" d="M3910.3,2212.532l-13.462,7.771a1.559,1.559,0,0,1-1.406-.058l-5.775-3.333,13.462-7.771a1.561,1.561,0,0,1,1.407.059Z" transform="translate(-3889.073 -2209)"/></g><path class="k" d="M3896.818,2220.1l13.806-7.975c.36-.207.315-.572-.1-.812l-5.833-3.367a1.564,1.564,0,0,0-1.408-.058l-13.806,7.975c-.361.209-.315.572.1.814l5.834,3.367A1.565,1.565,0,0,0,3896.818,2220.1Z" transform="translate(-3889.232 -2207.745)"/><path class="n" d="M3901.19,2209.475l-10.312,5.956a.421.421,0,0,1,0,.8l4.033,2.328a1.524,1.524,0,0,1,1.375,0l11.483-6.63a.421.421,0,0,1,0-.8l-4.033-2.329a1.523,1.523,0,0,1-1.375,0Z" transform="translate(-3888.614 -2207.35)"/><path class="k" d="M3899.637,2213.961c-1.739,1-4.9-.1-4.609-1.551.212-1.077,2.673-1.567,4.354-.6C3900.447,2212.429,3900.622,2213.389,3899.637,2213.961Z" transform="translate(-3887.065 -2206.415)"/><path class="k" d="M3899.338,2211.666a.38.38,0,0,1-.19-.708l.99-.572a.379.379,0,0,1,.379.657l-.99.571A.368.368,0,0,1,3899.338,2211.666Z" transform="translate(-3885.584 -2206.773)"/><path class="k" d="M3893.905,2214.795a.38.38,0,0,1-.189-.708l.938-.542a.38.38,0,0,1,.379.657l-.938.542A.379.379,0,0,1,3893.905,2214.795Z" transform="translate(-3887.621 -2205.588)"/><g transform="translate(16.068 5.334)"><g transform="translate(0 5.039)"><path class="g" d="M3906.849,2216.215h0v4.8h0c-.13,1.17-5.852,1.172-5.929,0h0v-4.8h0c0-.292.36-.471.631-.579h0a3.877,3.877,0,0,1,.447-.138C3903.7,2215.037,3906.849,2215.373,3906.849,2216.215Z" transform="translate(-3900.917 -2215.29)"/><path class="o" d="M3906.849,2216.217h0v4.8h0c0,1.144-5.85,1.2-5.929,0h0v-4.8h0c0-.29.36-.472.631-.579h0C3903.4,2214.954,3906.849,2215.35,3906.849,2216.217Z" transform="translate(-3900.917 -2215.29)"/><path class="p" d="M3906.851,2216.635v.413a7.6,7.6,0,0,1-5.932,0v-.413c.188.326,1.283.714,2.966.714S3906.669,2216.962,3906.851,2216.635Z" transform="translate(-3900.918 -2214.785)"/><path class="p" d="M3906.851,2217.375v.413a7.6,7.6,0,0,1-5.932,0v-.413c.187.325,1.282.715,2.966.715S3906.669,2217.7,3906.851,2217.375Z" transform="translate(-3900.918 -2214.508)"/><path class="p" d="M3906.851,2218.12v.412a7.628,7.628,0,0,1-5.932,0v-.424a4.321,4.321,0,0,0,2.966.716C3905.569,2218.835,3906.669,2218.445,3906.851,2218.12Z" transform="translate(-3900.918 -2214.233)"/><path class="p" d="M3906.851,2218.857v.422a7.628,7.628,0,0,1-5.932,0v-.413c.188.325,1.283.714,2.966.714C3905.6,2219.573,3906.669,2219.172,3906.851,2218.857Z" transform="translate(-3900.918 -2213.952)"/><ellipse class="n" cx="2.966" cy="0.909" rx="2.966" ry="0.909"/></g><path class="g" d="M3906.849,2212.551h0v4.8h0c-.129,1.16-5.852,1.177-5.929,0h0v-4.8h0c0-.292.362-.472.631-.578h0a3.923,3.923,0,0,1,.447-.137C3903.663,2211.381,3906.849,2211.69,3906.849,2212.551Z" transform="translate(-3900.917 -2211.624)"/><path class="o" d="M3906.848,2212.552h0v5.1h0c0,.328-.65.575-.962.655-1.757.5-4.91.166-4.965-.655h0v-5.1h0c0-.291.361-.472.631-.578h0C3903.4,2211.29,3906.848,2211.685,3906.848,2212.552Z" transform="translate(-3900.917 -2211.624)"/><path class="p" d="M3906.851,2212.97v.413a7.6,7.6,0,0,1-5.932,0v-.413c.188.325,1.283.714,2.966.714S3906.669,2213.295,3906.851,2212.97Z" transform="translate(-3900.918 -2211.12)"/><path class="p" d="M3906.851,2213.71v.413a7.6,7.6,0,0,1-5.932,0v-.413c.187.324,1.282.715,2.966.715S3906.669,2214.036,3906.851,2213.71Z" transform="translate(-3900.918 -2210.843)"/><path class="p" d="M3906.851,2214.455v.413a7.638,7.638,0,0,1-5.932,0v-.425a4.327,4.327,0,0,0,2.966.716C3905.569,2215.17,3906.669,2214.777,3906.851,2214.455Z" transform="translate(-3900.918 -2210.568)"/><path class="p" d="M3906.851,2215.192v.422a7.628,7.628,0,0,1-5.932,0v-.413c.188.326,1.283.714,2.966.714C3905.6,2215.908,3906.669,2215.507,3906.851,2215.192Z" transform="translate(-3900.918 -2210.287)"/><path class="p" d="M3906.851,2215.872v.422a7.628,7.628,0,0,1-5.932,0v-.413c.188.326,1.283.714,2.966.714C3905.6,2216.589,3906.669,2216.187,3906.851,2215.872Z" transform="translate(-3900.918 -2210.032)"/><ellipse class="q" cx="2.966" cy="0.909" rx="2.966" ry="0.909"/></g><g transform="translate(11.773 11.419)"><path class="g" d="M3903.88,2217h0v4.927h0c-.137,1.207-6.006,1.2-6.085,0h0V2217h0c0-.3.37-.484.648-.593h0a4.084,4.084,0,0,1,.459-.137C3900.622,2215.8,3903.88,2216.125,3903.88,2217Z" transform="translate(-3897.794 -2216.049)"/><path class="o" d="M3903.88,2217h0v4.927h0a.488.488,0,0,1-.249.354c-1.29.9-5.775.654-5.837-.354h0V2217h0c0-.3.37-.482.648-.592h0C3900.339,2215.7,3903.88,2216.112,3903.88,2217Z" transform="translate(-3897.794 -2216.05)"/><path class="p" d="M3903.881,2217.43v.428a7.805,7.805,0,0,1-6.087,0v-.428c.194.333,1.317.733,3.044.733S3903.69,2217.764,3903.881,2217.43Z" transform="translate(-3897.794 -2215.532)"/><path class="p" d="M3903.881,2218.191v.428a7.805,7.805,0,0,1-6.087,0v-.428c.193.333,1.316.733,3.044.733S3903.69,2218.524,3903.881,2218.191Z" transform="translate(-3897.794 -2215.247)"/><path class="p" d="M3903.881,2218.953v.427a7.842,7.842,0,0,1-6.087,0v-.436a4.443,4.443,0,0,0,3.044.734C3902.568,2219.686,3903.69,2219.286,3903.881,2218.953Z" transform="translate(-3897.794 -2214.964)"/><path class="p" d="M3903.881,2219.71v.433a7.829,7.829,0,0,1-6.087,0v-.427c.194.334,1.317.733,3.044.733C3902.6,2220.446,3903.693,2220.033,3903.881,2219.71Z" transform="translate(-3897.794 -2214.677)"/><ellipse class="q" cx="3.044" cy="0.932" rx="3.044" ry="0.932"/></g></g></g></g></g></svg>