<svg id="menu_hamburger" xmlns="http://www.w3.org/2000/svg" width="25" height="25" viewBox="0 0 25 25">
  <path id="Icon_color" data-name="Icon color" d="M18.472,15H.528A.533.533,0,0,1,0,14.464V13.393a.533.533,0,0,1,.528-.536H18.472a.533.533,0,0,1,.528.536v1.071A.533.533,0,0,1,18.472,15Zm0-6.429H.528A.533.533,0,0,1,0,8.035V6.964a.532.532,0,0,1,.528-.535H18.472A.532.532,0,0,1,19,6.964V8.035A.533.533,0,0,1,18.472,8.571Zm0-6.429H.528A.532.532,0,0,1,0,1.607V.536A.533.533,0,0,1,.528,0H18.472A.533.533,0,0,1,19,.536V1.607A.532.532,0,0,1,18.472,2.143Z" transform="translate(3 5)" fill="#343747"/>
</svg>
