<svg id="notifications" xmlns="http://www.w3.org/2000/svg" width="16" height="16" viewBox="0 0 16 16">
  <path id="Icon_color" data-name="Icon color" d="M5.333,13.333A1.335,1.335,0,0,1,4,12H6.667A1.335,1.335,0,0,1,5.333,13.333ZM10,10.667H.667A.667.667,0,0,1,0,10V9.607A.672.672,0,0,1,.193,9.14l.553-.553a2.012,2.012,0,0,0,.587-1.413V5.333a4.023,4.023,0,0,1,.8-2.4l.6-.8a2.008,2.008,0,0,1,1.6-.8h.334v-1A.334.334,0,0,1,5,0h.667A.334.334,0,0,1,6,.334v1h.334a2.008,2.008,0,0,1,1.6.8l.6.8a4.023,4.023,0,0,1,.8,2.4v1.84A2.011,2.011,0,0,0,9.92,8.587l.554.553a.672.672,0,0,1,.193.467V10A.667.667,0,0,1,10,10.667Z" transform="translate(2.667 1.333)" fill="#fff"/>
</svg>
