<svg xmlns="http://www.w3.org/2000/svg" xmlns:xlink="http://www.w3.org/1999/xlink" width="22" height="22" viewBox="0 0 22 22"><defs><style>.a{fill:none;}.b{clip-path:url(#a);}.c{fill:#fff;}.d{fill:#4988fd;}.e{fill:#1676ee;}.f{fill:#3973f4;}.g{fill:#828282;}.h{fill:#666;}.i{fill:#707070;}</style><clipPath id="a"><rect class="a" width="22" height="22"/></clipPath></defs><g transform="translate(-3904.748 -2411.258)"><g transform="translate(3904.748 2411.258)"><g class="b"><g transform="translate(0 1.138)"><path class="c" d="M3915.252,2413.612l2.664.608a2.48,2.48,0,0,1,1.867,1.867l1.165,5.1a1.407,1.407,0,0,1-.343,1.433l-6.388,6.39" transform="translate(-3901.196 -2411.513)"/><path class="d" d="M3916.485,2430.457l7.685-7.685a1.409,1.409,0,0,0,.343-1.434l-1.165-5.1a2.479,2.479,0,0,0-1.867-1.867l-5.115-1.144a1.411,1.411,0,0,0-1.434.341l-9.885,9.885a1.023,1.023,0,0,0,0,1.446l5.1,5.1c.048.048.1.095.146.139a4.808,4.808,0,0,0,6.3.18" transform="translate(-3904.748 -2411.685)"/><circle class="c" cx="1.528" cy="1.528" r="1.528" transform="translate(13.658 4.566)"/><path class="e" d="M3921.351,2418.316a5.622,5.622,0,0,1-1.167.9.531.531,0,0,1-.124.051l-.238-1.042a4.559,4.559,0,0,0,.8-.638,4.031,4.031,0,0,0,1.182-2.206,2,2,0,0,0-.473-1.759c-.9-.9-2.676-.58-3.963.707a4.307,4.307,0,0,0-.3.326,3.883,3.883,0,0,0-.884,1.88c-.005.041-.012.085-.015.126a1.944,1.944,0,0,0,.488,1.631,1.623,1.623,0,0,0,.469.326c.077.036.153.075.228.119a.5.5,0,0,1,.091.068,1.529,1.529,0,0,1-.317.458,1.508,1.508,0,0,1-.429.3l-.008-.005a2.616,2.616,0,0,1-.766-.534,2.857,2.857,0,0,1-.81-2.053,4.2,4.2,0,0,1,.044-.591,4.8,4.8,0,0,1,.8-1.979,5.566,5.566,0,0,1,.669-.8c1.691-1.691,4.126-2.009,5.427-.707S3923.044,2416.624,3921.351,2418.316Z" transform="translate(-3900.86 -2412.086)"/><path class="f" d="M3915.187,2425.847a4.781,4.781,0,0,1-5.885.322,4.588,4.588,0,0,1-.52-.415.292.292,0,0,1,.1-.01,5.181,5.181,0,0,0,2.754-.715,1.055,1.055,0,0,1,1.242.047A3.71,3.71,0,0,0,3915.187,2425.847Z" transform="translate(-3903.235 -2407.299)"/><g transform="translate(5.69 7.46)"><path class="c" d="M3915.973,2418.486l-.785,2.313a.182.182,0,0,0,.027.169l1.46,1.958a.185.185,0,0,1-.15.294l-2.441-.032a.182.182,0,0,0-.153.079l-1.411,1.994a.184.184,0,0,1-.326-.052l-.726-2.332a.183.183,0,0,0-.121-.121l-2.332-.724a.186.186,0,0,1-.053-.327l2-1.409a.182.182,0,0,0,.077-.153l-.03-2.443a.184.184,0,0,1,.294-.15l1.957,1.462a.187.187,0,0,0,.169.026l2.314-.784A.185.185,0,0,1,3915.973,2418.486Z" transform="translate(-3908.886 -2417.511)"/></g></g></g></g><g transform="translate(3904.748 2411.258)"><g class="b"><g transform="translate(0 1.138)"><path class="c" d="M3915.252,2413.612l2.664.608a2.48,2.48,0,0,1,1.867,1.867l1.165,5.1a1.407,1.407,0,0,1-.343,1.433l-6.388,6.39" transform="translate(-3901.196 -2411.513)"/><path class="g" d="M3916.485,2430.457l7.685-7.685a1.409,1.409,0,0,0,.343-1.434l-1.165-5.1a2.479,2.479,0,0,0-1.867-1.867l-5.115-1.144a1.411,1.411,0,0,0-1.434.341l-9.885,9.885a1.023,1.023,0,0,0,0,1.446l5.1,5.1c.048.048.1.095.146.139a4.808,4.808,0,0,0,6.3.18" transform="translate(-3904.748 -2411.685)"/><circle class="c" cx="1.528" cy="1.528" r="1.528" transform="translate(13.658 4.566)"/><path class="h" d="M3921.351,2418.316a5.622,5.622,0,0,1-1.167.9.531.531,0,0,1-.124.051l-.238-1.042a4.559,4.559,0,0,0,.8-.638,4.031,4.031,0,0,0,1.182-2.206,2,2,0,0,0-.473-1.759c-.9-.9-2.676-.58-3.963.707a4.307,4.307,0,0,0-.3.326,3.883,3.883,0,0,0-.884,1.88c-.005.041-.012.085-.015.126a1.944,1.944,0,0,0,.488,1.631,1.623,1.623,0,0,0,.469.326c.077.036.153.075.228.119a.5.5,0,0,1,.091.068,1.529,1.529,0,0,1-.317.458,1.508,1.508,0,0,1-.429.3l-.008-.005a2.616,2.616,0,0,1-.766-.534,2.857,2.857,0,0,1-.81-2.053,4.2,4.2,0,0,1,.044-.591,4.8,4.8,0,0,1,.8-1.979,5.566,5.566,0,0,1,.669-.8c1.691-1.691,4.126-2.009,5.427-.707S3923.044,2416.624,3921.351,2418.316Z" transform="translate(-3900.86 -2412.086)"/><path class="i" d="M3915.187,2425.847a4.781,4.781,0,0,1-5.885.322,4.588,4.588,0,0,1-.52-.415.292.292,0,0,1,.1-.01,5.181,5.181,0,0,0,2.754-.715,1.055,1.055,0,0,1,1.242.047A3.71,3.71,0,0,0,3915.187,2425.847Z" transform="translate(-3903.235 -2407.299)"/><g transform="translate(5.69 7.46)"><path class="c" d="M3915.973,2418.486l-.785,2.313a.182.182,0,0,0,.027.169l1.46,1.958a.185.185,0,0,1-.15.294l-2.441-.032a.182.182,0,0,0-.153.079l-1.411,1.994a.184.184,0,0,1-.326-.052l-.726-2.332a.183.183,0,0,0-.121-.121l-2.332-.724a.186.186,0,0,1-.053-.327l2-1.409a.182.182,0,0,0,.077-.153l-.03-2.443a.184.184,0,0,1,.294-.15l1.957,1.462a.187.187,0,0,0,.169.026l2.314-.784A.185.185,0,0,1,3915.973,2418.486Z" transform="translate(-3908.886 -2417.511)"/></g></g></g></g></g></svg>