<svg id="Сгруппировать_774" data-name="Сгруппировать 774" xmlns="http://www.w3.org/2000/svg" xmlns:xlink="http://www.w3.org/1999/xlink" width="30" height="30" viewBox="0 0 30 30">
  <defs>
    <clipPath id="clip-path">
      <rect id="SVGID" width="30" height="30" fill="none"/>
    </clipPath>
  </defs>
  <g id="Сгруппировать_773" data-name="Сгруппировать 773" clip-path="url(#clip-path)">
    <g id="Coupon_2" data-name="Coupon 2" transform="translate(0 1.552)">
      <path id="Контур_888" data-name="Контур 888" d="M3915.628,2413.612l3.632.829a3.38,3.38,0,0,1,2.546,2.546l1.589,6.956a1.919,1.919,0,0,1-.467,1.954l-8.711,8.713" transform="translate(-3896.462 -2410.75)" fill="#fff"/>
      <path id="Контур_889" data-name="Контур 889" d="M3920.754,2436.748l10.479-10.479a1.922,1.922,0,0,0,.468-1.956l-1.589-6.955a3.38,3.38,0,0,0-2.546-2.546l-6.975-1.56a1.924,1.924,0,0,0-1.956.465l-13.479,13.479a1.394,1.394,0,0,0,0,1.972l6.955,6.957c.065.065.131.129.2.189a6.557,6.557,0,0,0,8.6.246" transform="translate(-3904.748 -2411.149)" fill="#4988fd"/>
      <circle id="Эллипс_83" data-name="Эллипс 83" cx="2.084" cy="2.084" r="2.084" transform="translate(18.625 6.226)" fill="#fff"/>
      <path id="Контур_890" data-name="Контур 890" d="M3923.619,2420.582a7.657,7.657,0,0,1-1.591,1.223.72.72,0,0,1-.169.069l-.324-1.421a6.238,6.238,0,0,0,1.085-.87,5.5,5.5,0,0,0,1.611-3.008,2.729,2.729,0,0,0-.646-2.4c-1.224-1.222-3.648-.791-5.4.964a5.887,5.887,0,0,0-.4.444,5.3,5.3,0,0,0-1.206,2.563c-.007.056-.017.116-.021.172a2.651,2.651,0,0,0,.666,2.224,2.214,2.214,0,0,0,.639.445q.157.073.311.162a.7.7,0,0,1,.125.093,2.092,2.092,0,0,1-.432.624,2.062,2.062,0,0,1-.585.411l-.011-.007a3.569,3.569,0,0,1-1.044-.728,3.9,3.9,0,0,1-1.1-2.8,5.77,5.77,0,0,1,.06-.806,6.537,6.537,0,0,1,1.1-2.7,7.578,7.578,0,0,1,.913-1.1c2.307-2.307,5.627-2.74,7.4-.964S3925.927,2418.274,3923.619,2420.582Z" transform="translate(-3895.677 -2412.086)" fill="#1676ee"/>
      <path id="Контур_891" data-name="Контур 891" d="M3917.516,2426.21a6.52,6.52,0,0,1-8.025.439,6.233,6.233,0,0,1-.708-.566.4.4,0,0,1,.131-.013,7.065,7.065,0,0,0,3.756-.975,1.44,1.44,0,0,1,1.693.064A5.059,5.059,0,0,0,3917.516,2426.21Z" transform="translate(-3901.217 -2400.918)" fill="#3973f4"/>
      <g id="Сгруппировать_772" data-name="Сгруппировать 772" transform="translate(7.759 10.173)">
        <path id="Контур_892" data-name="Контур 892" d="M3918.55,2418.84l-1.071,3.154a.247.247,0,0,0,.038.23l1.991,2.67a.251.251,0,0,1-.205.4l-3.329-.043a.249.249,0,0,0-.208.107l-1.923,2.719a.251.251,0,0,1-.445-.072l-.99-3.18a.249.249,0,0,0-.165-.165l-3.18-.988a.253.253,0,0,1-.072-.447l2.722-1.922a.25.25,0,0,0,.1-.208l-.042-3.332a.251.251,0,0,1,.4-.2l2.668,1.993a.256.256,0,0,0,.231.036l3.155-1.069A.252.252,0,0,1,3918.55,2418.84Z" transform="translate(-3908.886 -2417.511)" fill="#fff"/>
      </g>
    </g>
  </g>
</svg>
