<svg xmlns="http://www.w3.org/2000/svg" xmlns:xlink="http://www.w3.org/1999/xlink" width="30" height="30" viewBox="0 0 30 30">
  <defs>
    <clipPath id="clip-path">
      <rect id="SVGID" width="30" height="30" transform="translate(0 0)" fill="none"/>
    </clipPath>
  </defs>
  <g id="Сгруппировать_636" data-name="Сгруппировать 636" transform="translate(0 0.124)">
    <g id="Сгруппировать_575" data-name="Сгруппировать 575" transform="translate(0 -0.123)" clip-path="url(#clip-path)">
      <g id="Enmascarar_grupo_41" data-name="Enmascarar grupo 41" transform="translate(0.002 1.291)">
        <g id="Cart_Added" data-name="Cart Added">
          <path id="Trazado_732" data-name="Trazado 732" d="M3918.822,2140.383a2.032,2.032,0,0,0-1.631-.837h-20.957l-1.271-4.193a2.214,2.214,0,0,0-2.13-1.581h-2.563a1.038,1.038,0,0,0,0,2.075h2.563a.145.145,0,0,1,.144.107l5.117,16.86a3.086,3.086,0,0,0,2.953,2.166H3914a1.036,1.036,0,0,0,0-2.072h-12.955a1.017,1.017,0,0,1-.971-.705l-.245-.8h14.074a3.21,3.21,0,0,0,3.079-2.269l2.147-6.927A2.023,2.023,0,0,0,3918.822,2140.383Z" transform="translate(-3889.233 -2132.971)" fill="#4988fd"/>
          <path id="Trazado_733" data-name="Trazado 733" d="M3908.954,2138.163a6.968,6.968,0,0,1-13.935-.03,7.241,7.241,0,0,1,.122-1.282h13.688A6.887,6.887,0,0,1,3908.954,2138.163Z" transform="translate(-3884.17 -2130.279)" fill="#2767f4"/>
          <path id="Trazado_734" data-name="Trazado 734" d="M3896.853,2145.741a2.29,2.29,0,1,0,2.291,2.289,2.29,2.29,0,0,0-2.291-2.289Zm0,3.375a.781.781,0,1,1,.007.005h-.007Z" transform="translate(-3884.567 -2122.499)" fill="#2767f4"/>
          <path id="Trazado_735" data-name="Trazado 735" d="M3902.724,2145.741a2.29,2.29,0,1,0,2.291,2.289,2.289,2.289,0,0,0-2.291-2.289Zm0,3.375a.83.83,0,1,1,.013.005h-.013Z" transform="translate(-3879.43 -2122.499)" fill="#2767f4"/>
          <g id="Grupo_516" data-name="Grupo 516" transform="translate(11.916)">
            <path id="Trazado_736" data-name="Trazado 736" d="M3905.874,2145.545a6.645,6.645,0,1,1,3-5.556A6.643,6.643,0,0,1,3905.874,2145.545Z" transform="translate(-3895.588 -2133.346)" fill="#fff"/>
            <path id="Trazado_737" data-name="Trazado 737" d="M3899.807,2140.58a.813.813,0,0,1-.562-.234l-1.674-1.674a.8.8,0,0,1,1.136-1.138l1.106,1.106,2.873-2.874a.8.8,0,0,1,1.136,1.136l-3.442,3.443A.818.818,0,0,1,3899.807,2140.58Z" transform="translate(-3894.047 -2131.411)" fill="#4988fd"/>
          </g>
        </g>
      </g>
    </g>
  </g>
</svg>
