<svg xmlns="http://www.w3.org/2000/svg" xmlns:xlink="http://www.w3.org/1999/xlink" width="22" height="22" viewBox="0 0 22 22"><defs><style>.a{fill:none;}.b{clip-path:url(#a);}.c{fill:#4988fd;}.d{fill:#2767f4;}.e{fill:#fff;}.f{fill:#828282;}.g{fill:#636363;}</style><clipPath id="a"><rect class="a" width="22" height="22" transform="translate(0 -0.123)"/></clipPath></defs><g transform="translate(0 0.123)"><g transform="translate(0 0)"><g class="b"><g transform="translate(0.001 0.823)"><path class="c" d="M3910.931,2138.62a1.49,1.49,0,0,0-1.2-.614h-15.368l-.932-3.074a1.624,1.624,0,0,0-1.562-1.159h-1.88a.761.761,0,0,0,0,1.522h1.88a.106.106,0,0,1,.105.079l3.752,12.364a2.263,2.263,0,0,0,2.166,1.588h9.5a.76.76,0,0,0,0-1.519h-9.5a.746.746,0,0,1-.712-.517l-.179-.59h10.321a2.354,2.354,0,0,0,2.258-1.664l1.574-5.079A1.483,1.483,0,0,0,3910.931,2138.62Z" transform="translate(-3889.233 -2133.185)"/><path class="d" d="M3905.238,2137.813a5.109,5.109,0,1,1-10.219-.022,5.282,5.282,0,0,1,.089-.94h10.038A5.055,5.055,0,0,1,3905.238,2137.813Z" transform="translate(-3887.063 -2132.031)"/><path class="d" d="M3896.243,2145.741a1.679,1.679,0,1,0,1.68,1.679,1.679,1.679,0,0,0-1.68-1.679Zm0,2.475a.573.573,0,1,1,.005,0h-.005Z" transform="translate(-3887.233 -2128.697)"/><path class="d" d="M3902.114,2145.741a1.679,1.679,0,1,0,1.68,1.679,1.679,1.679,0,0,0-1.68-1.679Zm0,2.475a.609.609,0,1,1,.009,0h-.009Z" transform="translate(-3885.032 -2128.697)"/><g transform="translate(8.738)"><path class="e" d="M3903.131,2142.292a4.873,4.873,0,1,1,2.2-4.074A4.872,4.872,0,0,1,3903.131,2142.292Z" transform="translate(-3895.588 -2133.346)"/><path class="c" d="M3899.151,2139.241a.6.6,0,0,1-.413-.172l-1.228-1.228a.59.59,0,0,1,.833-.835l.812.811,2.106-2.108a.59.59,0,0,1,.833.833l-2.524,2.525A.6.6,0,0,1,3899.151,2139.241Z" transform="translate(-3894.928 -2132.516)"/></g></g></g></g><g transform="translate(0 0)"><g class="b"><g transform="translate(0.001 0.823)"><path class="f" d="M3910.931,2138.62a1.49,1.49,0,0,0-1.2-.614h-15.368l-.932-3.074a1.624,1.624,0,0,0-1.562-1.159h-1.88a.761.761,0,0,0,0,1.522h1.88a.106.106,0,0,1,.105.079l3.752,12.364a2.263,2.263,0,0,0,2.166,1.588h9.5a.76.76,0,0,0,0-1.519h-9.5a.746.746,0,0,1-.712-.517l-.179-.59h10.321a2.354,2.354,0,0,0,2.258-1.664l1.574-5.079A1.483,1.483,0,0,0,3910.931,2138.62Z" transform="translate(-3889.233 -2133.185)"/><path class="g" d="M3905.238,2137.813a5.109,5.109,0,1,1-10.219-.022,5.282,5.282,0,0,1,.089-.94h10.038A5.055,5.055,0,0,1,3905.238,2137.813Z" transform="translate(-3887.063 -2132.031)"/><path class="g" d="M3896.243,2145.741a1.679,1.679,0,1,0,1.68,1.679,1.679,1.679,0,0,0-1.68-1.679Zm0,2.475a.573.573,0,1,1,.005,0h-.005Z" transform="translate(-3887.233 -2128.697)"/><path class="g" d="M3902.114,2145.741a1.679,1.679,0,1,0,1.68,1.679,1.679,1.679,0,0,0-1.68-1.679Zm0,2.475a.609.609,0,1,1,.009,0h-.009Z" transform="translate(-3885.032 -2128.697)"/><g transform="translate(8.738)"><path class="e" d="M3903.131,2142.292a4.873,4.873,0,1,1,2.2-4.074A4.872,4.872,0,0,1,3903.131,2142.292Z" transform="translate(-3895.588 -2133.346)"/><path class="f" d="M3899.151,2139.241a.6.6,0,0,1-.413-.172l-1.228-1.228a.59.59,0,0,1,.833-.835l.812.811,2.106-2.108a.59.59,0,0,1,.833.833l-2.524,2.525A.6.6,0,0,1,3899.151,2139.241Z" transform="translate(-3894.928 -2132.516)"/></g></g></g></g></g></svg>