<svg xmlns="http://www.w3.org/2000/svg" xmlns:xlink="http://www.w3.org/1999/xlink" width="30" height="30" viewBox="0 0 30 30">
  <defs>
    <clipPath id="clip-path">
      <rect id="SVGID" width="30" height="30" transform="translate(0 0)" fill="none"/>
    </clipPath>
  </defs>
  <g id="Сгруппировать_597" data-name="Сгруппировать 597" transform="translate(0 -0.007)">
    <g id="Сгруппировать_596" data-name="Сгруппировать 596" transform="translate(0 0.008)">
      <g id="Сгруппировать_595" data-name="Сгруппировать 595" clip-path="url(#clip-path)">
        <g id="Enmascarar_grupo_43" data-name="Enmascarar grupo 43" transform="translate(0.165 -0.019)">
          <g id="Cog_Wheels" data-name="Cog Wheels">
            <path id="Trazado_796" data-name="Trazado 796" d="M3912.118,2315.366l-.635-.09a.822.822,0,0,1-.654-.54c-.075-.21-.162-.416-.257-.619a.829.829,0,0,1,.083-.846l.375-.515a.819.819,0,0,0-.077-1.067l-1.078-1.076a.818.818,0,0,0-1.067-.079l-.516.375a.816.816,0,0,1-.844.081,5.771,5.771,0,0,0-.617-.258.812.812,0,0,1-.539-.653l-.094-.634a.821.821,0,0,0-.81-.7h-1.522a.822.822,0,0,0-.811.7l-.093.634a.813.813,0,0,1-.541.653q-.315.115-.619.258a.816.816,0,0,1-.844-.081l-.516-.375a.819.819,0,0,0-1.067.079l-1.076,1.076a.817.817,0,0,0-.077,1.067l.375.515a.819.819,0,0,1,.079.846,5.143,5.143,0,0,0-.255.619.824.824,0,0,1-.653.54l-.636.09a.821.821,0,0,0-.7.812v1.525a.7.7,0,0,0,.014.154.368.368,0,0,0,.017.069.238.238,0,0,0,.022.067.785.785,0,0,0,.062.129l.024.039v.01l.018.022.046.054a.7.7,0,0,0,.092.09h0a.46.46,0,0,0,.058.042.55.55,0,0,0,.059.037.741.741,0,0,0,.273.091l.563.081h0l.067.011a.537.537,0,0,1,.11.024l.092.034h0a.278.278,0,0,1,.064.034h0c.011,0,.022.015.035.019h0a.358.358,0,0,1,.074.054,1.1,1.1,0,0,1,.081.075,1.06,1.06,0,0,1,.067.084c.021.032,0,.011.012.015l.024.038.022.041c.017.035.032.069.045.1h0a.17.17,0,0,0,.015.04c.034.09.069.187.105.274h0q.064.152.135.3a.791.791,0,0,1,.034.084.8.8,0,0,1,.024.091.418.418,0,0,1,.017.086.8.8,0,0,1-.067.427.552.552,0,0,1-.057.1.309.309,0,0,1-.031.048h0l-.375.512a.818.818,0,0,0-.081.133.847.847,0,0,0-.041.1.378.378,0,0,0-.021.077.8.8,0,0,0,0,.338v.021a.757.757,0,0,0,.075.2c.014.026.028.049.042.071a.781.781,0,0,0,.1.129l.225.223.854.855a.817.817,0,0,0,1.066.077l.516-.384a.825.825,0,0,1,.844-.079c.1.049.2.1.306.137.072.031.147.06.221.084l.038.013a.3.3,0,0,0,.055.022l.052.019.051.026.088.051.021.015a.4.4,0,0,1,.073.06c.021.021.04.04.058.062a.147.147,0,0,1,.029.033l.031.046a.684.684,0,0,1,.058.1l.02.039h0a.79.79,0,0,1,.046.161v.03l.094.635a.863.863,0,0,0,.094.28.53.53,0,0,0,.06.092.738.738,0,0,0,.071.081.272.272,0,0,0,.052.049.673.673,0,0,0,.117.086.8.8,0,0,0,.13.062.807.807,0,0,0,.287.052h1.523a.547.547,0,0,0,.069,0,.819.819,0,0,0,.75-.7l.093-.636a.815.815,0,0,1,.538-.653,6.606,6.606,0,0,0,.618-.26.826.826,0,0,1,.844.079l.515.386a.824.824,0,0,0,1.068-.077l1.078-1.078a.818.818,0,0,0,.076-1.069l-.375-.512a.828.828,0,0,1-.083-.848,5.873,5.873,0,0,0,.257-.619.825.825,0,0,1,.655-.539l.635-.091a.815.815,0,0,0,.7-.811v-1.524A.822.822,0,0,0,3912.118,2315.366Zm-7.488,4.427a2.854,2.854,0,1,1,2.856-2.854,2.854,2.854,0,0,1-2.856,2.854Z" transform="translate(-3883.096 -2308.742)" fill="#fff"/>
            <path id="Trazado_797" data-name="Trazado 797" d="M3911.938,2322.041a1.153,1.153,0,0,0-.244-.171.365.365,0,0,1-.069,0H3910.1a.746.746,0,0,1-.287-.051.515.515,0,0,1-.132-.064.549.549,0,0,1-.116-.086.27.27,0,0,1-.053-.047.925.925,0,0,1-.069-.081.793.793,0,0,1-.152-.377l-.091-.634v-.032c-.006-.026-.011-.052-.019-.081a.727.727,0,0,0-.027-.079h0a.212.212,0,0,0-.019-.04.733.733,0,0,0-.059-.1.407.407,0,0,0-.031-.045.168.168,0,0,0-.027-.036c-.019-.02-.039-.043-.06-.062s-.047-.039-.073-.062l-.021-.015-.088-.051-.052-.024-.052-.022-.057-.021-.036-.015c-.073-.024-.148-.052-.221-.083-.1-.043-.207-.088-.306-.137a.813.813,0,0,0-.842.079l-.516.375a.819.819,0,0,1-1.067-.077l-.853-.855-.225-.223a.844.844,0,0,1-.105-.128.643.643,0,0,1-.041-.073.888.888,0,0,1-.075-.2v-.021a.863.863,0,0,1,0-.336c.006-.026.013-.053.021-.077a.881.881,0,0,1,.041-.1,1.134,1.134,0,0,1,.079-.133l.376-.514h0a.345.345,0,0,0,.033-.047,1.087,1.087,0,0,0,.057-.1.811.811,0,0,0,.068-.426.829.829,0,0,0-.018-.09.438.438,0,0,0-.024-.087.719.719,0,0,0-.034-.086c-.047-.1-.092-.2-.135-.3h0c-.034-.09-.071-.189-.1-.274a.21.21,0,0,0-.013-.039h0l-.045-.1-.023-.041-.024-.04-.013-.015a.539.539,0,0,0-.068-.082.569.569,0,0,0-.081-.077.382.382,0,0,0-.073-.055h0l-.035-.021h0a.324.324,0,0,0-.064-.034h0l-.092-.035a.673.673,0,0,0-.11-.026h-.067l-.562-.083a.836.836,0,0,1-.274-.088.455.455,0,0,1-.061-.039l-.058-.04h0a.989.989,0,0,1-.091-.09.607.607,0,0,1-.047-.056l-.017-.021v-.01l-.025-.039a.938.938,0,0,1-.062-.129c0-.025-.017-.044-.022-.066a.627.627,0,0,1-.017-.071.871.871,0,0,1-.015-.154v-1.525a1.142,1.142,0,0,1,.012-.143,1.151,1.151,0,0,0-.824-.345h-2.145a1.155,1.155,0,0,0-1.14.984l-.131.9a1.155,1.155,0,0,1-.76.923c-.3.109-.586.227-.87.36a1.153,1.153,0,0,1-1.191-.113l-.724-.542a1.154,1.154,0,0,0-1.5.109l-1.519,1.519a1.158,1.158,0,0,0-.111,1.5l.542.726a1.152,1.152,0,0,1,.113,1.19,9.38,9.38,0,0,0-.361.87,1.151,1.151,0,0,1-.92.75l-.9.131a1.156,1.156,0,0,0-.986,1.143v2.147a1.152,1.152,0,0,0,.986,1.14l.9.13a1.16,1.16,0,0,1,.92.75,9.252,9.252,0,0,0,.361.872,1.153,1.153,0,0,1-.113,1.188l-.542.728a1.144,1.144,0,0,0-.226.75,1.119,1.119,0,0,0,.335.75l1.519,1.523a1.157,1.157,0,0,0,1.5.107l.724-.542a1.153,1.153,0,0,1,1.191-.113,4.305,4.305,0,0,0,.441.188h0c.142.058.282.113.427.163a1.179,1.179,0,0,1,.563.417h0a1.114,1.114,0,0,1,.2.5l.131.9a1.14,1.14,0,0,0,.283.608,1.167,1.167,0,0,0,.857.375h2.146a1.155,1.155,0,0,0,1.144-.984l.13-.9a1.152,1.152,0,0,1,.761-.921,9.059,9.059,0,0,0,.868-.36,1.164,1.164,0,0,1,1.189.11l.728.542a1.158,1.158,0,0,0,1.5-.107l1.519-1.523a1.154,1.154,0,0,0,.109-1.5l-.542-.728a1.164,1.164,0,0,1-.217-.548,1.149,1.149,0,0,1,.1-.643c.135-.281.253-.574.362-.87a1.154,1.154,0,0,1,.92-.75l.9-.132a1.15,1.15,0,0,0,.985-1.14v-2.147A1.153,1.153,0,0,0,3911.938,2322.041Zm-11.149,5.954a4.022,4.022,0,1,1,4.023-4.022h0a4.02,4.02,0,0,1-4.024,4.021h0Z" transform="translate(-3889.32 -2305.491)" fill="#4988fd"/>
            <path id="Trazado_798" data-name="Trazado 798" d="M3897.884,2315.586l-.633-.1a.821.821,0,0,1-.7-.811v-.87a.808.808,0,0,0,.49.265l.562.083h.068a.834.834,0,0,1,.652.54,6.25,6.25,0,0,0,.255.621.818.818,0,0,1-.047.793A.809.809,0,0,0,3897.884,2315.586Z" transform="translate(-3882.993 -2304.306)" fill="#2767f4"/>
            <path id="Trazado_799" data-name="Trazado 799" d="M3905.23,2319.775v.23a.81.81,0,0,1-.488.161h-1.523a.817.817,0,0,1-.81-.7l-.094-.638a.829.829,0,0,0-.54-.653c-.209-.075-.416-.161-.619-.255a.818.818,0,0,0-.846.079l-.514.375a.823.823,0,0,1-1.069-.079l-1.074-1.079a.819.819,0,0,1-.079-1.067l.092-.124.853.853a.822.822,0,0,0,1.07.079l.511-.375a.827.827,0,0,1,.844-.081,5.849,5.849,0,0,0,.619.255.834.834,0,0,1,.464.411.807.807,0,0,1,.071.213v.028l.091.638a.814.814,0,0,0,.808.7h1.594a1.11,1.11,0,0,1,.244.171A1.152,1.152,0,0,1,3905.23,2319.775Z" transform="translate(-3882.236 -2302.367)" fill="#3973f4"/>
            <path id="Trazado_800" data-name="Trazado 800" d="M3912.118,2315.366l-.635-.09a.822.822,0,0,1-.654-.54c-.075-.21-.162-.416-.257-.619a.829.829,0,0,1,.083-.846l.375-.515a.819.819,0,0,0-.077-1.067l-1.078-1.076a.818.818,0,0,0-1.067-.079l-.516.375a.816.816,0,0,1-.844.081,5.771,5.771,0,0,0-.617-.258.812.812,0,0,1-.539-.653l-.094-.634a.821.821,0,0,0-.81-.7h-1.522a.822.822,0,0,0-.811.7l-.093.634a.813.813,0,0,1-.541.653q-.315.115-.619.258a.816.816,0,0,1-.844-.081l-.516-.375a.819.819,0,0,0-1.067.079l-1.076,1.076a.817.817,0,0,0-.077,1.067l.375.515a.819.819,0,0,1,.079.846,5.143,5.143,0,0,0-.255.619.824.824,0,0,1-.653.54l-.636.09a.821.821,0,0,0-.7.812v1.525a.7.7,0,0,0,.014.154.368.368,0,0,0,.017.069.238.238,0,0,0,.022.067.785.785,0,0,0,.062.129l.024.039v.01l.018.022.046.054a.7.7,0,0,0,.092.09h0a.46.46,0,0,0,.058.042.55.55,0,0,0,.059.037.741.741,0,0,0,.273.091l.563.081h0l.067.011a.537.537,0,0,1,.11.024l.092.034h0a.278.278,0,0,1,.064.034h0c.011,0,.022.015.035.019h0a.358.358,0,0,1,.074.054,1.1,1.1,0,0,1,.081.075,1.06,1.06,0,0,1,.067.084c.021.032,0,.011.012.015l.024.038.022.041c.017.035.032.069.045.1h0a.17.17,0,0,0,.015.04c.034.09.069.187.105.274h0q.064.152.135.3a.791.791,0,0,1,.034.084.8.8,0,0,1,.024.091.418.418,0,0,1,.017.086.8.8,0,0,1-.067.427.552.552,0,0,1-.057.1.309.309,0,0,1-.031.048h0l-.375.512a.818.818,0,0,0-.081.133.847.847,0,0,0-.041.1.378.378,0,0,0-.021.077.8.8,0,0,0,0,.338v.021a.757.757,0,0,0,.075.2c.014.026.028.049.042.071a.781.781,0,0,0,.1.129l.225.223.854.855a.817.817,0,0,0,1.066.077l.516-.384a.825.825,0,0,1,.844-.079c.1.049.2.1.306.137.072.031.147.06.221.084l.038.013a.3.3,0,0,0,.055.022l.052.019.051.026.088.051.021.015a.4.4,0,0,1,.073.06c.021.021.04.04.058.062a.147.147,0,0,1,.029.033l.031.046a.684.684,0,0,1,.058.1l.02.039h0a.79.79,0,0,1,.046.161v.03l.094.635a.863.863,0,0,0,.094.28.53.53,0,0,0,.06.092.738.738,0,0,0,.071.081.272.272,0,0,0,.052.049.673.673,0,0,0,.117.086.8.8,0,0,0,.13.062.807.807,0,0,0,.287.052h1.523a.547.547,0,0,0,.069,0,.819.819,0,0,0,.75-.7l.093-.636a.815.815,0,0,1,.538-.653,6.606,6.606,0,0,0,.618-.26.826.826,0,0,1,.844.079l.515.386a.824.824,0,0,0,1.068-.077l1.078-1.078a.818.818,0,0,0,.076-1.069l-.375-.512a.828.828,0,0,1-.083-.848,5.873,5.873,0,0,0,.257-.619.825.825,0,0,1,.655-.539l.635-.091a.815.815,0,0,0,.7-.811v-1.524A.822.822,0,0,0,3912.118,2315.366Zm-7.488,4.427a2.854,2.854,0,1,1,2.856-2.854,2.854,2.854,0,0,1-2.856,2.854Z" transform="translate(-3883.096 -2308.742)" fill="#6097fd"/>
          </g>
        </g>
      </g>
    </g>
  </g>
</svg>
