<svg xmlns="http://www.w3.org/2000/svg" xmlns:xlink="http://www.w3.org/1999/xlink" width="22" height="22" viewBox="0 0 22 22"><defs><style>.a{fill:none;}.b{clip-path:url(#a);}.c{fill:#fff;}.d{fill:#4988fd;}.e{fill:#2767f4;}.f{fill:#3973f4;}.g{fill:#6097fd;}.h{fill:#828282;}.i{fill:#636363;}.j{fill:#707070;}.k{fill:#929292;}</style><clipPath id="a"><rect class="a" width="22" height="22" transform="translate(0 0.008)"/></clipPath></defs><g transform="translate(0 -0.008)"><g transform="translate(0 0)"><g class="b"><g transform="translate(0.121 -0.007)"><path class="c" d="M3907.933,2313.6l-.466-.066a.6.6,0,0,1-.48-.4,4.889,4.889,0,0,0-.188-.454.608.608,0,0,1,.061-.62l.275-.378a.6.6,0,0,0-.057-.782l-.791-.789a.6.6,0,0,0-.782-.058l-.378.275a.6.6,0,0,1-.619.059,4.252,4.252,0,0,0-.452-.189.6.6,0,0,1-.4-.479l-.069-.465a.6.6,0,0,0-.594-.514h-1.116a.6.6,0,0,0-.594.514l-.068.465a.6.6,0,0,1-.4.479q-.231.084-.454.189a.6.6,0,0,1-.619-.059l-.378-.275a.6.6,0,0,0-.783.058l-.789.789a.6.6,0,0,0-.057.782l.275.378a.6.6,0,0,1,.058.62,3.792,3.792,0,0,0-.187.454.6.6,0,0,1-.479.4l-.466.066a.6.6,0,0,0-.514.6v1.118a.513.513,0,0,0,.01.113.3.3,0,0,0,.012.051.173.173,0,0,0,.017.049.563.563,0,0,0,.045.095l.018.029v.007l.013.016.034.04a.505.505,0,0,0,.067.066h0a.324.324,0,0,0,.042.031.424.424,0,0,0,.043.027.547.547,0,0,0,.2.066l.413.059h0l.049.008a.39.39,0,0,1,.081.018l.067.025h0a.206.206,0,0,1,.047.025h0c.008,0,.016.011.026.014h0a.268.268,0,0,1,.054.04.542.542,0,0,1,.108.117c.016.023,0,.008.009.011l.018.028.017.03c.012.026.023.051.033.075h0a.118.118,0,0,0,.011.029c.025.066.051.137.077.2h0c.032.074.064.148.1.223a.537.537,0,0,1,.042.128.3.3,0,0,1,.012.063.585.585,0,0,1-.049.313.427.427,0,0,1-.042.076.228.228,0,0,1-.023.035h0l-.275.375a.584.584,0,0,0-.059.1.624.624,0,0,0-.03.074.3.3,0,0,0-.015.057.588.588,0,0,0,0,.248v.015a.54.54,0,0,0,.055.148c.01.019.021.036.03.052a.571.571,0,0,0,.077.095l.165.164.626.627a.6.6,0,0,0,.782.056l.378-.281a.6.6,0,0,1,.619-.058c.073.036.148.07.224.1.053.023.108.044.162.062l.027.01a.239.239,0,0,0,.04.017l.039.014.037.019.064.038.015.011a.306.306,0,0,1,.054.044c.015.015.029.029.042.045a.1.1,0,0,1,.021.024l.023.034a.5.5,0,0,1,.042.073l.014.029h0a.315.315,0,0,1,.021.059.323.323,0,0,1,.014.059v.022l.069.466a.628.628,0,0,0,.069.205.409.409,0,0,0,.044.067.6.6,0,0,0,.052.059.21.21,0,0,0,.039.036.489.489,0,0,0,.085.063.574.574,0,0,0,.1.045.588.588,0,0,0,.21.039h1.167a.6.6,0,0,0,.55-.51l.068-.466a.6.6,0,0,1,.395-.479,4.793,4.793,0,0,0,.453-.191.6.6,0,0,1,.619.058l.378.283a.6.6,0,0,0,.783-.056l.791-.791a.6.6,0,0,0,.056-.784l-.275-.375a.607.607,0,0,1-.061-.622,4.347,4.347,0,0,0,.188-.454.6.6,0,0,1,.48-.4l.466-.067a.6.6,0,0,0,.513-.594v-1.118A.6.6,0,0,0,3907.933,2313.6Zm-5.49,3.246a2.093,2.093,0,1,1,2.094-2.092,2.093,2.093,0,0,1-2.094,2.092Z" transform="translate(-3886.654 -2308.742)"/><path class="d" d="M3905.9,2319.484a.845.845,0,0,0-.179-.125.294.294,0,0,1-.051,0h-1.116a.55.55,0,0,1-.21-.037.377.377,0,0,1-.1-.047.4.4,0,0,1-.085-.063.2.2,0,0,1-.039-.034.637.637,0,0,1-.051-.059.583.583,0,0,1-.112-.276l-.067-.465v-.023c0-.019-.008-.039-.014-.059a.47.47,0,0,0-.02-.058h0a.152.152,0,0,0-.014-.029.548.548,0,0,0-.043-.074.28.28,0,0,0-.023-.033.134.134,0,0,0-.02-.026c-.014-.015-.029-.031-.044-.045s-.034-.029-.054-.045l-.015-.011-.064-.037-.039-.018-.038-.016-.042-.015-.026-.011c-.054-.018-.108-.039-.162-.061-.076-.031-.151-.065-.224-.1a.6.6,0,0,0-.617.058l-.378.275a.6.6,0,0,1-.782-.056l-.625-.627-.165-.163a.622.622,0,0,1-.077-.094.463.463,0,0,1-.03-.053.667.667,0,0,1-.055-.15v-.015a.632.632,0,0,1,0-.246c0-.019.01-.039.015-.056a.677.677,0,0,1,.03-.074.814.814,0,0,1,.058-.1l.275-.377h0a.249.249,0,0,0,.024-.034.778.778,0,0,0,.042-.077.6.6,0,0,0,.05-.312.623.623,0,0,0-.013-.066.349.349,0,0,0-.018-.063.55.55,0,0,0-.025-.063c-.035-.076-.067-.149-.1-.223h0l-.076-.2a.136.136,0,0,0-.009-.029h0l-.033-.076-.017-.03-.018-.029-.009-.011a.392.392,0,0,0-.05-.06.414.414,0,0,0-.059-.056.28.28,0,0,0-.054-.04h0l-.026-.015h0a.228.228,0,0,0-.047-.025h0l-.067-.026a.516.516,0,0,0-.081-.019h-.049l-.413-.061a.612.612,0,0,1-.2-.065.313.313,0,0,1-.044-.029l-.042-.029h0a.808.808,0,0,1-.067-.066.508.508,0,0,1-.035-.041l-.012-.015v-.007l-.018-.029a.662.662,0,0,1-.045-.095c0-.018-.012-.032-.017-.048a.466.466,0,0,1-.012-.052.635.635,0,0,1-.011-.113v-1.118a.823.823,0,0,1,.009-.1.844.844,0,0,0-.6-.253h-1.573a.847.847,0,0,0-.836.722l-.1.657a.847.847,0,0,1-.557.677c-.218.08-.43.167-.638.264a.846.846,0,0,1-.873-.083l-.531-.4a.846.846,0,0,0-1.1.08l-1.114,1.114a.849.849,0,0,0-.082,1.1l.4.532a.845.845,0,0,1,.083.873,6.777,6.777,0,0,0-.265.638.844.844,0,0,1-.675.55l-.657.1a.847.847,0,0,0-.723.838v1.574a.845.845,0,0,0,.723.836l.657.095a.852.852,0,0,1,.675.55,6.7,6.7,0,0,0,.265.64.845.845,0,0,1-.083.871l-.4.534a.84.84,0,0,0-.166.55.82.82,0,0,0,.246.55l1.113,1.116a.849.849,0,0,0,1.1.079l.531-.4a.845.845,0,0,1,.873-.083,3.179,3.179,0,0,0,.324.138h0c.1.043.207.083.313.12a.866.866,0,0,1,.413.305h0a.818.818,0,0,1,.149.365l.1.657a.837.837,0,0,0,.208.446.856.856,0,0,0,.628.275h1.573a.847.847,0,0,0,.838-.722l.1-.657a.845.845,0,0,1,.558-.675,6.655,6.655,0,0,0,.637-.264.853.853,0,0,1,.872.081l.534.4a.849.849,0,0,0,1.1-.078l1.114-1.117a.846.846,0,0,0,.08-1.1l-.4-.534a.852.852,0,0,1-.159-.4.843.843,0,0,1,.077-.472c.1-.206.186-.421.266-.638a.846.846,0,0,1,.675-.55l.657-.1a.843.843,0,0,0,.722-.836V2320.1A.844.844,0,0,0,3905.9,2319.484Zm-8.174,4.365a2.949,2.949,0,1,1,2.95-2.949h0a2.948,2.948,0,0,1-2.951,2.948h0Z" transform="translate(-3889.32 -2307.349)"/><path class="e" d="M3897.528,2315.112l-.464-.07a.6.6,0,0,1-.514-.594v-.638a.59.59,0,0,0,.359.194l.412.061h.05a.612.612,0,0,1,.478.4,4.589,4.589,0,0,0,.187.455.6.6,0,0,1-.034.582A.594.594,0,0,0,3897.528,2315.112Z" transform="translate(-3886.61 -2306.842)"/><path class="f" d="M3903.145,2318.775v.169a.6.6,0,0,1-.357.118h-1.117a.6.6,0,0,1-.594-.514l-.069-.468a.607.607,0,0,0-.4-.479c-.154-.055-.305-.118-.454-.187a.6.6,0,0,0-.62.058l-.377.275a.6.6,0,0,1-.784-.058l-.788-.791a.6.6,0,0,1-.058-.782l.068-.091.625.626a.6.6,0,0,0,.784.058l.375-.275a.606.606,0,0,1,.619-.059,4.292,4.292,0,0,0,.454.187.612.612,0,0,1,.34.3.583.583,0,0,1,.052.157v.021l.067.468a.6.6,0,0,0,.593.514h1.169a.807.807,0,0,1,.179.125A.844.844,0,0,1,3903.145,2318.775Z" transform="translate(-3886.285 -2306.011)"/><path class="g" d="M3907.933,2313.6l-.466-.066a.6.6,0,0,1-.48-.4,4.889,4.889,0,0,0-.188-.454.608.608,0,0,1,.061-.62l.275-.378a.6.6,0,0,0-.057-.782l-.791-.789a.6.6,0,0,0-.782-.058l-.378.275a.6.6,0,0,1-.619.059,4.252,4.252,0,0,0-.452-.189.6.6,0,0,1-.4-.479l-.069-.465a.6.6,0,0,0-.594-.514h-1.116a.6.6,0,0,0-.594.514l-.068.465a.6.6,0,0,1-.4.479q-.231.084-.454.189a.6.6,0,0,1-.619-.059l-.378-.275a.6.6,0,0,0-.783.058l-.789.789a.6.6,0,0,0-.057.782l.275.378a.6.6,0,0,1,.058.62,3.792,3.792,0,0,0-.187.454.6.6,0,0,1-.479.4l-.466.066a.6.6,0,0,0-.514.6v1.118a.513.513,0,0,0,.01.113.3.3,0,0,0,.012.051.173.173,0,0,0,.017.049.563.563,0,0,0,.045.095l.018.029v.007l.013.016.034.04a.505.505,0,0,0,.067.066h0a.324.324,0,0,0,.042.031.424.424,0,0,0,.043.027.547.547,0,0,0,.2.066l.413.059h0l.049.008a.39.39,0,0,1,.081.018l.067.025h0a.206.206,0,0,1,.047.025h0c.008,0,.016.011.026.014h0a.268.268,0,0,1,.054.04.542.542,0,0,1,.108.117c.016.023,0,.008.009.011l.018.028.017.03c.012.026.023.051.033.075h0a.118.118,0,0,0,.011.029c.025.066.051.137.077.2h0c.032.074.064.148.1.223a.537.537,0,0,1,.042.128.3.3,0,0,1,.012.063.585.585,0,0,1-.049.313.427.427,0,0,1-.042.076.228.228,0,0,1-.023.035h0l-.275.375a.584.584,0,0,0-.059.1.624.624,0,0,0-.03.074.3.3,0,0,0-.015.057.588.588,0,0,0,0,.248v.015a.54.54,0,0,0,.055.148c.01.019.021.036.03.052a.571.571,0,0,0,.077.095l.165.164.626.627a.6.6,0,0,0,.782.056l.378-.281a.6.6,0,0,1,.619-.058c.073.036.148.07.224.1.053.023.108.044.162.062l.027.01a.239.239,0,0,0,.04.017l.039.014.037.019.064.038.015.011a.306.306,0,0,1,.054.044c.015.015.029.029.042.045a.1.1,0,0,1,.021.024l.023.034a.5.5,0,0,1,.042.073l.014.029h0a.315.315,0,0,1,.021.059.323.323,0,0,1,.014.059v.022l.069.466a.628.628,0,0,0,.069.205.409.409,0,0,0,.044.067.6.6,0,0,0,.052.059.21.21,0,0,0,.039.036.489.489,0,0,0,.085.063.574.574,0,0,0,.1.045.588.588,0,0,0,.21.039h1.167a.6.6,0,0,0,.55-.51l.068-.466a.6.6,0,0,1,.395-.479,4.793,4.793,0,0,0,.453-.191.6.6,0,0,1,.619.058l.378.283a.6.6,0,0,0,.783-.056l.791-.791a.6.6,0,0,0,.056-.784l-.275-.375a.607.607,0,0,1-.061-.622,4.347,4.347,0,0,0,.188-.454.6.6,0,0,1,.48-.4l.466-.067a.6.6,0,0,0,.513-.594v-1.118A.6.6,0,0,0,3907.933,2313.6Zm-5.49,3.246a2.093,2.093,0,1,1,2.094-2.092,2.093,2.093,0,0,1-2.094,2.092Z" transform="translate(-3886.654 -2308.742)"/></g></g></g><g transform="translate(0 0)"><g class="b"><g transform="translate(0.121 -0.007)"><path class="c" d="M3907.933,2313.6l-.466-.066a.6.6,0,0,1-.48-.4,4.889,4.889,0,0,0-.188-.454.608.608,0,0,1,.061-.62l.275-.378a.6.6,0,0,0-.057-.782l-.791-.789a.6.6,0,0,0-.782-.058l-.378.275a.6.6,0,0,1-.619.059,4.252,4.252,0,0,0-.452-.189.6.6,0,0,1-.4-.479l-.069-.465a.6.6,0,0,0-.594-.514h-1.116a.6.6,0,0,0-.594.514l-.068.465a.6.6,0,0,1-.4.479q-.231.084-.454.189a.6.6,0,0,1-.619-.059l-.378-.275a.6.6,0,0,0-.783.058l-.789.789a.6.6,0,0,0-.057.782l.275.378a.6.6,0,0,1,.058.62,3.792,3.792,0,0,0-.187.454.6.6,0,0,1-.479.4l-.466.066a.6.6,0,0,0-.514.6v1.118a.513.513,0,0,0,.01.113.3.3,0,0,0,.012.051.173.173,0,0,0,.017.049.563.563,0,0,0,.045.095l.018.029v.007l.013.016.034.04a.505.505,0,0,0,.067.066h0a.324.324,0,0,0,.042.031.424.424,0,0,0,.043.027.547.547,0,0,0,.2.066l.413.059h0l.049.008a.39.39,0,0,1,.081.018l.067.025h0a.206.206,0,0,1,.047.025h0c.008,0,.016.011.026.014h0a.268.268,0,0,1,.054.04.542.542,0,0,1,.108.117c.016.023,0,.008.009.011l.018.028.017.03c.012.026.023.051.033.075h0a.118.118,0,0,0,.011.029c.025.066.051.137.077.2h0c.032.074.064.148.1.223a.537.537,0,0,1,.042.128.3.3,0,0,1,.012.063.585.585,0,0,1-.049.313.427.427,0,0,1-.042.076.228.228,0,0,1-.023.035h0l-.275.375a.584.584,0,0,0-.059.1.624.624,0,0,0-.03.074.3.3,0,0,0-.015.057.588.588,0,0,0,0,.248v.015a.54.54,0,0,0,.055.148c.01.019.021.036.03.052a.571.571,0,0,0,.077.095l.165.164.626.627a.6.6,0,0,0,.782.056l.378-.281a.6.6,0,0,1,.619-.058c.073.036.148.07.224.1.053.023.108.044.162.062l.027.01a.239.239,0,0,0,.04.017l.039.014.037.019.064.038.015.011a.306.306,0,0,1,.054.044c.015.015.029.029.042.045a.1.1,0,0,1,.021.024l.023.034a.5.5,0,0,1,.042.073l.014.029h0a.315.315,0,0,1,.021.059.323.323,0,0,1,.014.059v.022l.069.466a.628.628,0,0,0,.069.205.409.409,0,0,0,.044.067.6.6,0,0,0,.052.059.21.21,0,0,0,.039.036.489.489,0,0,0,.085.063.574.574,0,0,0,.1.045.588.588,0,0,0,.21.039h1.167a.6.6,0,0,0,.55-.51l.068-.466a.6.6,0,0,1,.395-.479,4.793,4.793,0,0,0,.453-.191.6.6,0,0,1,.619.058l.378.283a.6.6,0,0,0,.783-.056l.791-.791a.6.6,0,0,0,.056-.784l-.275-.375a.607.607,0,0,1-.061-.622,4.347,4.347,0,0,0,.188-.454.6.6,0,0,1,.48-.4l.466-.067a.6.6,0,0,0,.513-.594v-1.118A.6.6,0,0,0,3907.933,2313.6Zm-5.49,3.246a2.093,2.093,0,1,1,2.094-2.092,2.093,2.093,0,0,1-2.094,2.092Z" transform="translate(-3886.654 -2308.742)"/><path class="h" d="M3905.9,2319.484a.845.845,0,0,0-.179-.125.294.294,0,0,1-.051,0h-1.116a.55.55,0,0,1-.21-.037.377.377,0,0,1-.1-.047.4.4,0,0,1-.085-.063.2.2,0,0,1-.039-.034.637.637,0,0,1-.051-.059.583.583,0,0,1-.112-.276l-.067-.465v-.023c0-.019-.008-.039-.014-.059a.47.47,0,0,0-.02-.058h0a.152.152,0,0,0-.014-.029.548.548,0,0,0-.043-.074.28.28,0,0,0-.023-.033.134.134,0,0,0-.02-.026c-.014-.015-.029-.031-.044-.045s-.034-.029-.054-.045l-.015-.011-.064-.037-.039-.018-.038-.016-.042-.015-.026-.011c-.054-.018-.108-.039-.162-.061-.076-.031-.151-.065-.224-.1a.6.6,0,0,0-.617.058l-.378.275a.6.6,0,0,1-.782-.056l-.625-.627-.165-.163a.622.622,0,0,1-.077-.094.463.463,0,0,1-.03-.053.667.667,0,0,1-.055-.15v-.015a.632.632,0,0,1,0-.246c0-.019.01-.039.015-.056a.677.677,0,0,1,.03-.074.814.814,0,0,1,.058-.1l.275-.377h0a.249.249,0,0,0,.024-.034.778.778,0,0,0,.042-.077.6.6,0,0,0,.05-.312.623.623,0,0,0-.013-.066.349.349,0,0,0-.018-.063.55.55,0,0,0-.025-.063c-.035-.076-.067-.149-.1-.223h0l-.076-.2a.136.136,0,0,0-.009-.029h0l-.033-.076-.017-.03-.018-.029-.009-.011a.392.392,0,0,0-.05-.06.414.414,0,0,0-.059-.056.28.28,0,0,0-.054-.04h0l-.026-.015h0a.228.228,0,0,0-.047-.025h0l-.067-.026a.516.516,0,0,0-.081-.019h-.049l-.413-.061a.612.612,0,0,1-.2-.065.313.313,0,0,1-.044-.029l-.042-.029h0a.808.808,0,0,1-.067-.066.508.508,0,0,1-.035-.041l-.012-.015v-.007l-.018-.029a.662.662,0,0,1-.045-.095c0-.018-.012-.032-.017-.048a.466.466,0,0,1-.012-.052.635.635,0,0,1-.011-.113v-1.118a.823.823,0,0,1,.009-.1.844.844,0,0,0-.6-.253h-1.573a.847.847,0,0,0-.836.722l-.1.657a.847.847,0,0,1-.557.677c-.218.08-.43.167-.638.264a.846.846,0,0,1-.873-.083l-.531-.4a.846.846,0,0,0-1.1.08l-1.114,1.114a.849.849,0,0,0-.082,1.1l.4.532a.845.845,0,0,1,.083.873,6.777,6.777,0,0,0-.265.638.844.844,0,0,1-.675.55l-.657.1a.847.847,0,0,0-.723.838v1.574a.845.845,0,0,0,.723.836l.657.095a.852.852,0,0,1,.675.55,6.7,6.7,0,0,0,.265.64.845.845,0,0,1-.083.871l-.4.534a.84.84,0,0,0-.166.55.82.82,0,0,0,.246.55l1.113,1.116a.849.849,0,0,0,1.1.079l.531-.4a.845.845,0,0,1,.873-.083,3.179,3.179,0,0,0,.324.138h0c.1.043.207.083.313.12a.866.866,0,0,1,.413.305h0a.818.818,0,0,1,.149.365l.1.657a.837.837,0,0,0,.208.446.856.856,0,0,0,.628.275h1.573a.847.847,0,0,0,.838-.722l.1-.657a.845.845,0,0,1,.558-.675,6.655,6.655,0,0,0,.637-.264.853.853,0,0,1,.872.081l.534.4a.849.849,0,0,0,1.1-.078l1.114-1.117a.846.846,0,0,0,.08-1.1l-.4-.534a.852.852,0,0,1-.159-.4.843.843,0,0,1,.077-.472c.1-.206.186-.421.266-.638a.846.846,0,0,1,.675-.55l.657-.1a.843.843,0,0,0,.722-.836V2320.1A.844.844,0,0,0,3905.9,2319.484Zm-8.174,4.365a2.949,2.949,0,1,1,2.95-2.949h0a2.948,2.948,0,0,1-2.951,2.948h0Z" transform="translate(-3889.32 -2307.349)"/><path class="i" d="M3897.528,2315.112l-.464-.07a.6.6,0,0,1-.514-.594v-.638a.59.59,0,0,0,.359.194l.412.061h.05a.612.612,0,0,1,.478.4,4.589,4.589,0,0,0,.187.455.6.6,0,0,1-.034.582A.594.594,0,0,0,3897.528,2315.112Z" transform="translate(-3886.61 -2306.842)"/><path class="j" d="M3903.145,2318.775v.169a.6.6,0,0,1-.357.118h-1.117a.6.6,0,0,1-.594-.514l-.069-.468a.607.607,0,0,0-.4-.479c-.154-.055-.305-.118-.454-.187a.6.6,0,0,0-.62.058l-.377.275a.6.6,0,0,1-.784-.058l-.788-.791a.6.6,0,0,1-.058-.782l.068-.091.625.626a.6.6,0,0,0,.784.058l.375-.275a.606.606,0,0,1,.619-.059,4.292,4.292,0,0,0,.454.187.612.612,0,0,1,.34.3.583.583,0,0,1,.052.157v.021l.067.468a.6.6,0,0,0,.593.514h1.169a.807.807,0,0,1,.179.125A.844.844,0,0,1,3903.145,2318.775Z" transform="translate(-3886.285 -2306.011)"/><path class="k" d="M3907.933,2313.6l-.466-.066a.6.6,0,0,1-.48-.4,4.889,4.889,0,0,0-.188-.454.608.608,0,0,1,.061-.62l.275-.378a.6.6,0,0,0-.057-.782l-.791-.789a.6.6,0,0,0-.782-.058l-.378.275a.6.6,0,0,1-.619.059,4.252,4.252,0,0,0-.452-.189.6.6,0,0,1-.4-.479l-.069-.465a.6.6,0,0,0-.594-.514h-1.116a.6.6,0,0,0-.594.514l-.068.465a.6.6,0,0,1-.4.479q-.231.084-.454.189a.6.6,0,0,1-.619-.059l-.378-.275a.6.6,0,0,0-.783.058l-.789.789a.6.6,0,0,0-.057.782l.275.378a.6.6,0,0,1,.058.62,3.792,3.792,0,0,0-.187.454.6.6,0,0,1-.479.4l-.466.066a.6.6,0,0,0-.514.6v1.118a.513.513,0,0,0,.01.113.3.3,0,0,0,.012.051.173.173,0,0,0,.017.049.563.563,0,0,0,.045.095l.018.029v.007l.013.016.034.04a.505.505,0,0,0,.067.066h0a.324.324,0,0,0,.042.031.424.424,0,0,0,.043.027.547.547,0,0,0,.2.066l.413.059h0l.049.008a.39.39,0,0,1,.081.018l.067.025h0a.206.206,0,0,1,.047.025h0c.008,0,.016.011.026.014h0a.268.268,0,0,1,.054.04.542.542,0,0,1,.108.117c.016.023,0,.008.009.011l.018.028.017.03c.012.026.023.051.033.075h0a.118.118,0,0,0,.011.029c.025.066.051.137.077.2h0c.032.074.064.148.1.223a.537.537,0,0,1,.042.128.3.3,0,0,1,.012.063.585.585,0,0,1-.049.313.427.427,0,0,1-.042.076.228.228,0,0,1-.023.035h0l-.275.375a.584.584,0,0,0-.059.1.624.624,0,0,0-.03.074.3.3,0,0,0-.015.057.588.588,0,0,0,0,.248v.015a.54.54,0,0,0,.055.148c.01.019.021.036.03.052a.571.571,0,0,0,.077.095l.165.164.626.627a.6.6,0,0,0,.782.056l.378-.281a.6.6,0,0,1,.619-.058c.073.036.148.07.224.1.053.023.108.044.162.062l.027.01a.239.239,0,0,0,.04.017l.039.014.037.019.064.038.015.011a.306.306,0,0,1,.054.044c.015.015.029.029.042.045a.1.1,0,0,1,.021.024l.023.034a.5.5,0,0,1,.042.073l.014.029h0a.315.315,0,0,1,.021.059.323.323,0,0,1,.014.059v.022l.069.466a.628.628,0,0,0,.069.205.409.409,0,0,0,.044.067.6.6,0,0,0,.052.059.21.21,0,0,0,.039.036.489.489,0,0,0,.085.063.574.574,0,0,0,.1.045.588.588,0,0,0,.21.039h1.167a.6.6,0,0,0,.55-.51l.068-.466a.6.6,0,0,1,.395-.479,4.793,4.793,0,0,0,.453-.191.6.6,0,0,1,.619.058l.378.283a.6.6,0,0,0,.783-.056l.791-.791a.6.6,0,0,0,.056-.784l-.275-.375a.607.607,0,0,1-.061-.622,4.347,4.347,0,0,0,.188-.454.6.6,0,0,1,.48-.4l.466-.067a.6.6,0,0,0,.513-.594v-1.118A.6.6,0,0,0,3907.933,2313.6Zm-5.49,3.246a2.093,2.093,0,1,1,2.094-2.092,2.093,2.093,0,0,1-2.094,2.092Z" transform="translate(-3886.654 -2308.742)"/></g></g></g></g></svg>