<svg id="calendar_month" xmlns="http://www.w3.org/2000/svg" width="16" height="16" viewBox="0 0 16 16">
  <path id="Icon_color" data-name="Icon color" d="M10.667,12.667H1.333A1.335,1.335,0,0,1,0,11.333V2.666A1.335,1.335,0,0,1,1.333,1.333H2v-1A.334.334,0,0,1,2.333,0H3a.334.334,0,0,1,.334.334v1H8.666v-1A.334.334,0,0,1,9,0h.667A.334.334,0,0,1,10,.334v1h.667A1.335,1.335,0,0,1,12,2.666v8.667A1.335,1.335,0,0,1,10.667,12.667ZM1.333,4v7.333h9.334V4Zm5,5.333H5.666A.334.334,0,0,1,5.333,9V8.333A.334.334,0,0,1,5.666,8h.667a.334.334,0,0,1,.333.334V9A.334.334,0,0,1,6.334,9.334Zm-2.667,0H3A.334.334,0,0,1,2.666,9V8.333A.334.334,0,0,1,3,8h.667A.334.334,0,0,1,4,8.333V9A.334.334,0,0,1,3.667,9.334ZM9,6.667H8.333A.334.334,0,0,1,8,6.334V5.666a.334.334,0,0,1,.334-.333H9a.334.334,0,0,1,.334.333v.667A.334.334,0,0,1,9,6.667Zm-2.666,0H5.666a.333.333,0,0,1-.333-.333V5.666a.333.333,0,0,1,.333-.333h.667a.333.333,0,0,1,.333.333v.667A.333.333,0,0,1,6.334,6.667Zm-2.667,0H3a.334.334,0,0,1-.334-.333V5.666A.334.334,0,0,1,3,5.333h.667A.334.334,0,0,1,4,5.666v.667A.334.334,0,0,1,3.667,6.667Z" transform="translate(2 1.333)" fill="#fff"/>
</svg>
