<svg id="double_caret_vertical" xmlns="http://www.w3.org/2000/svg" width="16" height="16" viewBox="0 0 16 16">
  <path id="Icon_color" data-name="Icon color" d="M2.858,9.335a.322.322,0,0,1-.233-.1L.1,6.707a.333.333,0,0,1,0-.473L.232,6.1A.328.328,0,0,1,.468,6H5.25a.328.328,0,0,1,.236.1l.133.134a.332.332,0,0,1,0,.473L3.092,9.235A.322.322,0,0,1,2.858,9.335Zm2.391-6H.468a.328.328,0,0,1-.236-.1L.1,3.1a.334.334,0,0,1,0-.473L2.625.1a.321.321,0,0,1,.467,0L5.618,2.627a.332.332,0,0,1,0,.473l-.133.134A.328.328,0,0,1,5.25,3.334Z" transform="translate(5.141 3.332)"/>
</svg>
