<svg id="add_square" xmlns="http://www.w3.org/2000/svg" width="16" height="16" viewBox="0 0 16 16">
  <path id="Icon_color" data-name="Icon color" d="M10.667,12H1.333A1.335,1.335,0,0,1,0,10.667V1.333A1.335,1.335,0,0,1,1.333,0h9.334A1.335,1.335,0,0,1,12,1.333v9.334A1.335,1.335,0,0,1,10.667,12Zm-7-6.667a.333.333,0,0,0-.333.333v.667a.333.333,0,0,0,.333.333H5.333V8.333a.333.333,0,0,0,.333.333h.667a.333.333,0,0,0,.333-.333V6.667H8.333a.333.333,0,0,0,.333-.333V5.666a.333.333,0,0,0-.333-.333H6.667V3.667a.333.333,0,0,0-.333-.333H5.666a.333.333,0,0,0-.333.333V5.333Z" transform="translate(2 2)" fill="#fff"/>
</svg>
