<svg id="tools" xmlns="http://www.w3.org/2000/svg" width="16" height="16" viewBox="0 0 16 16">
  <path id="Icon_color" data-name="Icon color" d="M10.2,12a.606.606,0,0,1-.467-.2l-3-3a.323.323,0,0,1,0-.467L7.067,8,2.533,3.467l-1.067-.6A.659.659,0,0,1,1,2.4L.067,1.067a.315.315,0,0,1,.067-.4L.667.133a.315.315,0,0,1,.4-.067l1.4.867a1.037,1.037,0,0,1,.4.533l.6,1.067L5.734,4.867,6.866,3.733a3.02,3.02,0,0,1-.2-1.067A2.675,2.675,0,0,1,9.334,0h.2c.133,0,.2,0,.266.067L9.934.2a.323.323,0,0,1,0,.467L8.867,1.733a.323.323,0,0,0,0,.467l.933.933a.323.323,0,0,0,.467,0l1.067-1.067a.57.57,0,0,1,.467,0l.133.134c0,.067.067.2.067.266v.2A2.675,2.675,0,0,1,9.334,5.333a2.437,2.437,0,0,1-1-.2L7.2,6.266l.8.8.334-.334a.323.323,0,0,1,.467,0l3,3a.606.606,0,0,1,.2.467V11a.6.6,0,0,1-.2.467l-.334.334A.6.6,0,0,1,11,12ZM1,12a.72.72,0,0,1-.467-.2L.2,11.467A.6.6,0,0,1,0,11v-.133A.607.607,0,0,1,.2,10.4L4,6.6,5.4,8,1.6,11.8a.607.607,0,0,1-.467.2Z" transform="translate(2 2)" fill="#fff"/>
</svg>
