<svg xmlns="http://www.w3.org/2000/svg" xmlns:xlink="http://www.w3.org/1999/xlink" width="30" height="30" viewBox="0 0 30 30">
  <defs>
    <clipPath id="clip-path">
      <rect id="SVGID" width="30" height="30" fill="none"/>
    </clipPath>
  </defs>
  <g id="Сгруппировать_821" data-name="Сгруппировать 821" transform="translate(0 0.117)">
    <g id="Сгруппировать_565" data-name="Сгруппировать 565" transform="translate(0 -0.117)" clip-path="url(#clip-path)">
      <g id="Enmascarar_grupo_38" data-name="Enmascarar grupo 38" transform="translate(0.009 2.302)">
        <g id="Marketing">
          <path id="Trazado_833" data-name="Trazado 833" d="M3897.976,2295.033l-2.35.24-.316-1.125-1.27-4.517,4.458,1.783.5,1.764.07.238a1.277,1.277,0,0,1-.882,1.575A1.157,1.157,0,0,1,3897.976,2295.033Z" transform="translate(-3885.035 -2275.115)" fill="#2767f4"/>
          <path id="Trazado_834" data-name="Trazado 834" d="M3900.807,2299.033a1.238,1.238,0,0,1-1.268,1.168l-1.922-.058a2.729,2.729,0,0,1-2.533-1.954l-2.312-7.815-.109-.125,3.973.028,1.288,4.656c1.387,1.742.98,1.209,1.918,2.512C3900.174,2297.91,3900.793,2298.383,3900.807,2299.033Z" transform="translate(-3886.24 -2274.574)" fill="#3973f4"/>
          <path id="Trazado_835" data-name="Trazado 835" d="M3893.768,2286.007h0" transform="translate(-3885.273 -2278.286)" fill="#fff"/>
          <path id="Trazado_836" data-name="Trazado 836" d="M3918.75,2293.654v.31c-.075,7.667-2.884,13.125-5.659,10.805-2.358-1.864-4.569-4.532-7.419-5.417a32.8,32.8,0,0,0-7.519-1.125c-.793-.052-1.583-.092-2.378-.116-.584-.019-1.173-.028-1.758-.028a4.323,4.323,0,0,1-4.764-3.833c-.008-.063-.013-.125-.017-.187v-.253a4.257,4.257,0,0,1,4.258-4.258c.923,0,1.78,0,2.591-.015h.22l2.187-.07a18.686,18.686,0,0,0,11.552-4.26,15.84,15.84,0,0,0,2.083-1.777,3.436,3.436,0,0,1,2.276-1.406C3916.8,2282.008,3918.75,2287.226,3918.75,2293.654Z" transform="translate(-3889.237 -2281.772)" fill="#4988fd"/>
          <path id="Trazado_837" data-name="Trazado 837" d="M3909.516,2293.359v.1c0,.21,0,.416-.011.621v.012q-.023.774-.079,1.515a26.184,26.184,0,0,1-.69,4.388h0c-.021.082-.042.163-.064.245-.148.551-.309,1.071-.49,1.551-.026.069-.05.137-.076.2s-.051.133-.079.2a8.038,8.038,0,0,1-1.27,2.2l-.089.1c-.062.068-.126.131-.188.188l-.075.069h0a2.2,2.2,0,0,1-1.472.643,1.97,1.97,0,0,1-1.035-.313c-.055-.034-.108-.071-.161-.109l-.073-.054c-.042-.032-.081-.064-.12-.1-1.434-1.213-2.562-4.254-3-8.1a32.361,32.361,0,0,1-.011-7.1,19.377,19.377,0,0,1,1.331-5.52,5.776,5.776,0,0,1,.676-.791,3.663,3.663,0,0,1,2.4-1.421C3907.412,2281.9,3909.446,2287.006,3909.516,2293.359Z" transform="translate(-3879.52 -2281.889)" fill="#3973f4"/>
          <path id="Trazado_838" data-name="Trazado 838" d="M3903.9,2289.823a3.375,3.375,0,0,1-3.375,3.375h0a30.678,30.678,0,0,1-.011-6.737h.019A3.374,3.374,0,0,1,3903.9,2289.823Z" transform="translate(-3879.529 -2277.889)" fill="#dfecfd"/>
          <path id="Trazado_839" data-name="Trazado 839" d="M3894.924,2290.6a9.475,9.475,0,0,0,.855,4h0c-.585-.019-1.174-.03-1.758-.03a4.321,4.321,0,0,1-4.765-3.831c-.008-.063-.011-.126-.017-.189v-.251a4.259,4.259,0,0,1,4.258-4.262c.922,0,1.779,0,2.591-.013A9.223,9.223,0,0,0,3894.924,2290.6Z" transform="translate(-3889.236 -2278.27)" fill="#3973f4"/>
          <path id="Trazado_840" data-name="Trazado 840" d="M3894.6,2289.776a.386.386,0,0,1-.116.187" transform="translate(-3884.649 -2274.989)" fill="none"/>
        </g>
      </g>
    </g>
  </g>
</svg>
