<svg xmlns="http://www.w3.org/2000/svg" xmlns:xlink="http://www.w3.org/1999/xlink" width="22" height="22" viewBox="0 0 22 22"><defs><style>.a{fill:none;}.b{clip-path:url(#a);}.c{fill:#2767f4;}.d{fill:#3973f4;}.e{fill:#fff;}.f{fill:#4988fd;}.g{fill:#dfecfd;}.h{fill:#636363;}.i{fill:#707070;}.j{fill:#828282;}.k{fill:#eaeaea;}</style><clipPath id="a"><rect class="a" width="22" height="22" transform="translate(0 -0.117)"/></clipPath></defs><g transform="translate(0 0.117)"><g transform="translate(0 0)"><g class="b"><g transform="translate(0.007 1.57)"><path class="c" d="M3896.926,2293.592l-1.723.176-.232-.825-.931-3.312,3.27,1.308.37,1.294.051.175a.937.937,0,0,1-.647,1.155A.865.865,0,0,1,3896.926,2293.592Z" transform="translate(-3887.436 -2278.986)"/><path class="d" d="M3898.635,2296.691a.908.908,0,0,1-.93.856l-1.41-.043a2,2,0,0,1-1.857-1.433l-1.7-5.731-.08-.092,2.914.021.944,3.414c1.018,1.277.719.887,1.407,1.842C3898.171,2295.867,3898.625,2296.214,3898.635,2296.691Z" transform="translate(-3887.952 -2278.754)"/><path class="e" d="M3893.768,2286.007h0" transform="translate(-3887.538 -2280.345)"/><path class="f" d="M3910.88,2290.552v.227c-.055,5.622-2.115,9.625-4.15,7.924-1.729-1.367-3.351-3.323-5.44-3.972a24.044,24.044,0,0,0-5.514-.825c-.582-.039-1.161-.067-1.744-.085-.429-.014-.86-.021-1.29-.021a3.17,3.17,0,0,1-3.494-2.811c-.006-.047-.01-.092-.013-.137v-.186a3.122,3.122,0,0,1,3.123-3.123c.677,0,1.305,0,1.9-.011h.161l1.6-.051a13.7,13.7,0,0,0,8.471-3.124,11.626,11.626,0,0,0,1.528-1.3,2.52,2.52,0,0,1,1.669-1.031C3909.448,2282.012,3910.88,2285.839,3910.88,2290.552Z" transform="translate(-3889.237 -2281.839)"/><path class="d" d="M3907.07,2290.3v.077c0,.154,0,.305-.008.455v.009q-.017.568-.058,1.111a19.165,19.165,0,0,1-.506,3.218h0c-.015.06-.03.119-.047.18-.108.4-.227.785-.359,1.137-.019.051-.037.1-.056.147s-.037.1-.058.146a5.892,5.892,0,0,1-.931,1.617l-.065.074c-.045.05-.092.1-.138.138l-.055.051h0a1.61,1.61,0,0,1-1.079.471,1.444,1.444,0,0,1-.759-.229c-.04-.025-.08-.052-.118-.08l-.054-.04c-.03-.023-.059-.047-.088-.073-1.052-.89-1.879-3.12-2.2-5.94a23.737,23.737,0,0,1-.008-5.21,14.209,14.209,0,0,1,.976-4.048,4.25,4.25,0,0,1,.5-.58,2.685,2.685,0,0,1,1.76-1.042C3905.527,2281.9,3907.019,2285.641,3907.07,2290.3Z" transform="translate(-3885.073 -2281.889)"/><path class="g" d="M3902.948,2288.926a2.475,2.475,0,0,1-2.475,2.475h0a22.494,22.494,0,0,1-.008-4.94h.014A2.475,2.475,0,0,1,3902.948,2288.926Z" transform="translate(-3885.076 -2280.175)"/><path class="d" d="M3893.408,2289.38a6.946,6.946,0,0,0,.627,2.934h0c-.429-.014-.861-.022-1.29-.022a3.169,3.169,0,0,1-3.494-2.809c-.006-.047-.008-.092-.012-.139v-.184a3.123,3.123,0,0,1,3.123-3.125c.676,0,1.3,0,1.9-.01A6.762,6.762,0,0,0,3893.408,2289.38Z" transform="translate(-3889.237 -2280.338)"/><path class="a" d="M3894.566,2289.776a.284.284,0,0,1-.085.137" transform="translate(-3887.271 -2278.932)"/></g></g></g><g transform="translate(0 0)"><g class="b"><g transform="translate(0.007 1.57)"><path class="h" d="M3896.926,2293.592l-1.723.176-.232-.825-.931-3.312,3.27,1.308.37,1.294.051.175a.937.937,0,0,1-.647,1.155A.865.865,0,0,1,3896.926,2293.592Z" transform="translate(-3887.436 -2278.986)"/><path class="i" d="M3898.635,2296.691a.908.908,0,0,1-.93.856l-1.41-.043a2,2,0,0,1-1.857-1.433l-1.7-5.731-.08-.092,2.914.021.944,3.414c1.018,1.277.719.887,1.407,1.842C3898.171,2295.867,3898.625,2296.214,3898.635,2296.691Z" transform="translate(-3887.952 -2278.754)"/><path class="e" d="M3893.768,2286.007h0" transform="translate(-3887.538 -2280.345)"/><path class="j" d="M3910.88,2290.552v.227c-.055,5.622-2.115,9.625-4.15,7.924-1.729-1.367-3.351-3.323-5.44-3.972a24.044,24.044,0,0,0-5.514-.825c-.582-.039-1.161-.067-1.744-.085-.429-.014-.86-.021-1.29-.021a3.17,3.17,0,0,1-3.494-2.811c-.006-.047-.01-.092-.013-.137v-.186a3.122,3.122,0,0,1,3.123-3.123c.677,0,1.305,0,1.9-.011h.161l1.6-.051a13.7,13.7,0,0,0,8.471-3.124,11.626,11.626,0,0,0,1.528-1.3,2.52,2.52,0,0,1,1.669-1.031C3909.448,2282.012,3910.88,2285.839,3910.88,2290.552Z" transform="translate(-3889.237 -2281.839)"/><path class="i" d="M3907.07,2290.3v.077c0,.154,0,.305-.008.455v.009q-.017.568-.058,1.111a19.165,19.165,0,0,1-.506,3.218h0c-.015.06-.03.119-.047.18-.108.4-.227.785-.359,1.137-.019.051-.037.1-.056.147s-.037.1-.058.146a5.892,5.892,0,0,1-.931,1.617l-.065.074c-.045.05-.092.1-.138.138l-.055.051h0a1.61,1.61,0,0,1-1.079.471,1.444,1.444,0,0,1-.759-.229c-.04-.025-.08-.052-.118-.08l-.054-.04c-.03-.023-.059-.047-.088-.073-1.052-.89-1.879-3.12-2.2-5.94a23.737,23.737,0,0,1-.008-5.21,14.209,14.209,0,0,1,.976-4.048,4.25,4.25,0,0,1,.5-.58,2.685,2.685,0,0,1,1.76-1.042C3905.527,2281.9,3907.019,2285.641,3907.07,2290.3Z" transform="translate(-3885.073 -2281.889)"/><path class="k" d="M3902.948,2288.926a2.475,2.475,0,0,1-2.475,2.475h0a22.494,22.494,0,0,1-.008-4.94h.014A2.475,2.475,0,0,1,3902.948,2288.926Z" transform="translate(-3885.076 -2280.175)"/><path class="i" d="M3893.408,2289.38a6.946,6.946,0,0,0,.627,2.934h0c-.429-.014-.861-.022-1.29-.022a3.169,3.169,0,0,1-3.494-2.809c-.006-.047-.008-.092-.012-.139v-.184a3.123,3.123,0,0,1,3.123-3.125c.676,0,1.3,0,1.9-.01A6.762,6.762,0,0,0,3893.408,2289.38Z" transform="translate(-3889.237 -2280.338)"/><path class="a" d="M3894.566,2289.776a.284.284,0,0,1-.085.137" transform="translate(-3887.271 -2278.932)"/></g></g></g></g></svg>